<?xml version="1.0" encoding="utf-8"?>
<!-- Generator: Adobe Illustrator 18.0.0, SVG Export Plug-In . SVG Version: 6.00 Build 0)  -->
<!DOCTYPE svg PUBLIC "-//W3C//DTD SVG 1.1//EN" "http://www.w3.org/Graphics/SVG/1.1/DTD/svg11.dtd">
<svg version="1.1" id="Layer_1" xmlns="http://www.w3.org/2000/svg" xmlns:xlink="http://www.w3.org/1999/xlink" x="0px" y="0px"
	 width="612.2px" height="112.5px" viewBox="49.3 688.6 612.2 112.5" enable-background="new 49.3 688.6 612.2 112.5"
	 xml:space="preserve">
<g>
	<g>
		<g>
			<g>
				<path fill="#47555D" d="M661.5,690v3.6h-5.1c-0.5,0-0.7,0.2-0.7,0.7v18.8H651v-18.8c0-0.5-0.5-0.7-0.7-0.7h-5.1V690
					C645,690,661.5,690,661.5,690z"/>
			</g>
			<g>
				<path fill="#47555D" d="M640.6,690v3.6c-0.5,0-8.8,0-9.1,0c-0.5,0-0.7,0.5-0.7,0.7v3.3c0,0.5,0.2,0.7,0.7,0.7h6.4v3.6h-6.4
					c-0.5,0-0.7,0.2-0.7,0.7v6.2c0,0.5,0.5,0.7,0.7,0.7c0.7,0,9.1,0,9.1,0v3.6h-14.4V690C626.2,690,640.6,690,640.6,690z"/>
			</g>
			<g>
				<path fill="#47555D" d="M604.6,690c0.2,0.2,10,9.5,10,9.5c0.2,0.2,0.5,0.2,0.7,0.2s0.5-0.5,0.5-0.7V690h4.6v23.5h-4.6v-4.9
					c0-1.3-0.5-2-1.1-2.9l-8-7.5c-0.2-0.2-0.5-0.2-0.7-0.2c-0.2,0.2-0.5,0.5-0.5,0.7v14.7h-4.4V690H604.6z"/>
			</g>
		</g>
	</g>
	<circle fill="#47555D" cx="592.7" cy="710.9" r="2.9"/>
	<path fill="#47555D" d="M438.6,795.1c1.3,0,2.6-1.1,2.6-2.6c0-1.5-1.1-2.6-2.6-2.6c-1.5,0-2.6,1.1-2.6,2.6
		C436,794.1,437.4,795.1,438.6,795.1z M448.4,795.1c1.3,0,2.6-1.1,2.6-2.6c0-1.5-1.1-2.6-2.6-2.6c-1.5,0-2.6,1.1-2.6,2.6
		C445.7,794.1,447.2,795.1,448.4,795.1z M458.3,795.1c1.3,0,2.6-1.1,2.6-2.6c0-1.5-1.1-2.6-2.6-2.6c-1.5,0-2.6,1.1-2.6,2.6
		C455.6,794.1,456.7,795.1,458.3,795.1z M458.3,785.6c1.3,0,2.6-1.1,2.6-2.6c0-1.5-1.1-2.6-2.6-2.6c-1.5,0-2.6,1.1-2.6,2.6
		C455.6,784.5,456.7,785.6,458.3,785.6z M458.3,761.1c-1.3,0-2.6,1.1-2.6,2.6l0,0l0,0c-1.3,0-2.6,1.1-2.6,2.6s1.1,2.6,2.6,2.6
		s2.6-1.1,2.6-2.6l0,0l0,0c1.3,0,2.6-1.1,2.6-2.6S459.4,761.1,458.3,761.1z M448.4,756.4c1.3,0,2.6-1.1,2.6-2.6s-1.1-2.6-2.6-2.6
		c-1.5,0-2.6,1.1-2.6,2.6C445.9,755.4,447.2,756.4,448.4,756.4z M458.3,756.4c1.3,0,2.6-1.1,2.6-2.6s-1.1-2.6-2.6-2.6
		c-1.5,0-2.6,1.1-2.6,2.6C455.6,755.4,456.7,756.4,458.3,756.4z M438.6,746.6c1.3,0,2.6-1.1,2.6-2.6c0-1.3-1.1-2.6-2.6-2.6
		c-1.5,0-2.6,1.1-2.6,2.6C436.3,745.6,437.4,746.6,438.6,746.6z M458.3,746.6c1.3,0,2.6-1.1,2.6-2.6c0-1.3-1.1-2.6-2.6-2.6
		c-1.5,0-2.6,1.1-2.6,2.6S456.7,746.6,458.3,746.6z M448.4,737.1c1.3,0,2.6-1.1,2.6-2.6c0-1.5-1.1-2.6-2.6-2.6
		c-1.5,0-2.6,1.1-2.6,2.6C445.9,736,447.2,737.1,448.4,737.1z M438.6,727.3c1.3,0,2.6-1.1,2.6-2.6s-1.1-2.6-2.6-2.6
		c-1.5,0-2.6,1.1-2.6,2.6S437.4,727.3,438.6,727.3z M458.3,727.3c1.3,0,2.6-1.1,2.6-2.6s-1.1-2.6-2.6-2.6c-1.5,0-2.6,1.1-2.6,2.6
		S456.7,727.3,458.3,727.3z M438.6,717.8c1.3,0,2.6-1.1,2.6-2.6s-1.1-2.6-2.6-2.6c-1.5,0-2.6,1.1-2.6,2.6S437.4,717.8,438.6,717.8z
		 M458.3,708c1.3,0,2.6-1.1,2.6-2.6c0-1.3-1.1-2.6-2.6-2.6c-1.5,0-2.6,1.1-2.6,2.6C455.6,706.9,456.7,708,458.3,708z M438.6,698.2
		c1.3,0,2.6-1.1,2.6-2.6c0-1.3-1.1-2.6-2.6-2.6c-1.5,0-2.6,1.1-2.6,2.6C436.3,697.2,437.4,698.2,438.6,698.2z M442.5,775.7
		c-0.2,0-0.5,0-0.7,0c-0.5,0-1.3-0.2-1.5-0.5c-0.5,0.2-1.1,0.5-1.5,0.5s-1.3-0.2-1.5-0.5c-0.5,0.2-1.1,0.5-1.5,0.5
		c-0.2,0-0.5,0-0.7-0.2v8c0.5-0.2,1.1-0.5,1.5-0.5l0,0l0,0c0-1.3,1.1-2.6,2.6-2.6l0,0l0,0c0-1.3,1.1-2.6,2.6-2.6l0,0l0,0
		C441.2,777,441.7,776.1,442.5,775.7z M461.8,761.9v35c0,1.3-1.1,2.3-2.3,2.3h-22.2c-1.3,0-2.3-1.1-2.3-2.3v-6.8
		c1.1-0.2,1.5-1.3,1.5-2.3l0,0l0,0c1.3,0,2.6-1.1,2.6-2.6l0,0l0,0c1.3,0,2.6-1.1,2.6-2.6l0,0l0,0c1.3,0,2.6-1.1,2.6-2.6l0,0l0,0
		c1.3,0,2.6-1.1,2.6-2.6l0,0l0,0c1.3,0,2.3-1.1,2.3-2.3c0.5,0,1.1-0.2,1.3-0.5c0.5,0.2,1.1,0.5,1.5,0.5c0.5,0,1.3-0.2,1.5-0.5
		c0.5,0.2,1.1,0.5,1.5,0.5c0.5,0,1.3-0.2,1.5-0.5c0.5,0.2,1.1,0.5,1.5,0.5c1.3,0,2.6-1.1,2.6-2.6c0-1.3-1.1-2.6-2.6-2.6
		c-0.5,0-1.3,0.2-1.5,0.5c-0.5-0.2-1.1-0.5-1.5-0.5c-0.5,0-1.1,0.2-1.3,0.5c0-0.2,0.2-0.5,0.2-0.7c0-1.3-1.1-2.6-2.6-2.6
		c-1.3,0-2.6,1.1-2.6,2.6l0,0l0,0c-0.7,0-1.5,0.2-1.8,1.1l0,0c-0.5-0.2-1.1-0.5-1.5-0.5s-1.3,0.2-1.5,0.5c-0.5-0.2-1.1-0.5-1.5-0.5
		c-0.5,0-1.3,0.2-1.5,0.5c-0.5-0.2-1.1-0.5-1.5-0.5c-0.5,0-1.3,0.2-1.5,0.5c-0.5-0.2-1.1-0.5-1.5-0.5c-0.2,0-0.5,0-0.7,0.2v-78.3
		c0-1.3,1.1-2.3,2.3-2.3h22.2c1.3,0,2.3,1.1,2.3,2.3v64.7c-1.1,0.2-2,1.3-2,2.3S460.5,761.6,461.8,761.9z"/>
	<path fill="#47555D" d="M397.3,792.8c0-0.5,0.2-1.3,0.5-1.5c-0.2-0.5-0.5-1.1-0.5-1.5s0.2-1.3,0.5-1.5c-0.2-0.5-0.5-1.1-0.5-1.5
		c0-1.3,1.1-2.6,2.6-2.6c1.3,0,2.6,1.1,2.6,2.6c0,0.5-0.2,1.3-0.5,1.5c0.2,0.5,0.5,1.1,0.5,1.5l0,0c5.1-6.4,8-16.8,8.8-33.5
		c-0.5,0.2-1.1,0.5-1.5,0.5c-1.3,0-2.6-1.1-2.6-2.6c0-1.5,1.1-2.6,2.6-2.6c0.5,0,1.3,0.2,1.5,0.5c0-2.3,0-4.6,0-6.9
		c0-2.9,0-5.7,0-8.5c-0.5,0.5-1.1,0.7-1.5,0.7c-1.3,0-2.6-1.1-2.6-2.6c0-1.5,1.1-2.6,2.6-2.6c0.5,0,1.1,0.2,1.5,0.5
		c-0.5-13.9-3.1-27.3-12.6-35.5c-8-6.7-18-7.3-33-7.3h-37.7c-1.3,0-2.3,1.1-2.3,2.3v78.6l0,0c1.3,0,2.6,1.1,2.6,2.6
		s-1.1,2.6-2.6,2.6l0,0v20.9c0,1.3,1.1,2.3,2.3,2.3h13.7c0.2-1.1,1.3-1.8,2.3-1.8l0,0l0,0c0-1.3,1.1-2.6,2.6-2.6l0,0l0,0
		c0-1.3,1.1-2.6,2.6-2.6l0,0l0,0c0-1.3,1.1-2.6,2.6-2.6l0,0l0,0c0-1.3,1.1-2.6,2.6-2.6l0,0l0,0c0-1.3,1.1-2.6,2.6-2.6
		c1.5,0,2.6,1.1,2.6,2.6s-1.1,2.6-2.6,2.6l0,0l0,0c0,1.3-1.1,2.6-2.6,2.6l0,0l0,0c0,1.3-1.1,2.6-2.6,2.6l0,0l0,0
		c0,1.3-1.1,2.6-2.6,2.6l0,0l0,0c0,0.7-0.2,1.3-0.7,1.8H366c13.9,0,24.4-0.5,31.9-5.7C397.7,793.6,397.3,793,397.3,792.8z
		 M400,703.1c1.3,0,2.6,1.1,2.6,2.6c0,1.3-1.1,2.6-2.6,2.6c-1.3,0-2.6-1.1-2.6-2.6C397.3,704.1,398.7,703.1,400,703.1z M400,712.7
		c1.3,0,2.6,1.1,2.6,2.6s-1.1,2.6-2.6,2.6c-1.3,0-2.6-1.1-2.6-2.6S398.7,712.7,400,712.7z M400,722.4c1.3,0,2.6,1.1,2.6,2.6
		s-1.1,2.6-2.6,2.6c-1.3,0-2.6-1.1-2.6-2.6S398.7,722.4,400,722.4z M397.3,737.9c0-0.5,0.2-1.3,0.5-1.5c-0.2-0.5-0.5-1.1-0.5-1.5
		c0-1.3,1.1-2.6,2.6-2.6c1.3,0,2.6,1.1,2.6,2.6c0,0.5-0.2,1.3-0.5,1.5c0.2,0.5,0.5,1.1,0.5,1.5s-0.2,1.3-0.5,1.5
		c0.2,0.5,0.5,1.1,0.5,1.5c0,1.3-1.1,2.6-2.6,2.6c-1.3,0-2.6-1.1-2.6-2.6c0-0.5,0.2-1.3,0.5-1.5
		C397.7,738.9,397.3,738.4,397.3,737.9z M397.3,760.3c0-0.5,0.2-1.3,0.5-1.5c-0.2-0.5-0.5-1.1-0.5-1.5s0.2-1.3,0.5-1.5
		c-0.2-0.5-0.5-1.1-0.5-1.5s0.2-1.3,0.5-1.5c-0.2-0.5-0.5-1.1-0.5-1.5c0-1.3,1.1-2.6,2.6-2.6c1.3,0,2.6,1.1,2.6,2.6
		c0,0.5-0.2,1.3-0.5,1.5c0.2,0.5,0.5,1.1,0.5,1.5s-0.2,1.3-0.5,1.5c0.2,0.5,0.5,1.1,0.5,1.5s-0.2,1.3-0.5,1.5
		c0.2,0.5,0.5,1.1,0.5,1.5s-0.2,1.3-0.5,1.5c0.2,0.5,0.5,1.1,0.5,1.5c0,1.3-1.1,2.6-2.6,2.6c-1.3,0-2.6-1.1-2.6-2.6
		c0-0.5,0.2-1.3,0.5-1.5C397.7,761.6,397.3,761.1,397.3,760.3z M397.3,773.2c0-0.5,0.2-1.3,0.5-1.5c-0.2-0.5-0.5-1.1-0.5-1.5
		c0-1.3,1.1-2.6,2.6-2.6c1.3,0,2.6,1.1,2.6,2.6c0,0.5-0.2,1.3-0.5,1.5c0.2,0.5,0.5,1.1,0.5,1.5c0,0.5-0.2,1.3-0.5,1.5
		c0.2,0.5,0.5,1.1,0.5,1.5c0,1.3-1.1,2.6-2.6,2.6c-1.3,0-2.6-1.1-2.6-2.6c0-0.5,0.2-1.3,0.5-1.5
		C397.7,774.5,397.3,773.9,397.3,773.2z M390.2,712.7c1.3,0,2.6,1.1,2.6,2.6s-1.1,2.6-2.6,2.6s-2.6-1.1-2.6-2.6
		S388.9,712.7,390.2,712.7z M390.2,732c1.3,0,2.6,1.1,2.6,2.6c0,1.5-1.1,2.6-2.6,2.6s-2.6-1.1-2.6-2.6
		C387.6,733,388.9,732,390.2,732z M380.7,703.1c1.3,0,2.6,1.1,2.6,2.6c0,1.3-1.1,2.6-2.6,2.6c-1.5,0-2.6-1.1-2.6-2.6
		C378,704.1,379.1,703.1,380.7,703.1z M370.9,693.3c1.3,0,2.6,1.1,2.6,2.6c0,1.3-1.1,2.6-2.6,2.6c-1.5,0-2.6-1.1-2.6-2.6
		C368.5,694.3,369.6,693.3,370.9,693.3z M341.8,722.4c1.3,0,2.6,1.1,2.6,2.6s-1.1,2.6-2.6,2.6c-1.5,0-2.6-1.1-2.6-2.6
		S340.5,722.4,341.8,722.4z M341.8,741.7c1.3,0,2.6,1.1,2.6,2.6c0,1.3-1.1,2.6-2.6,2.6c-1.5,0-2.6-1.1-2.6-2.6
		C339.4,742.8,340.5,741.7,341.8,741.7z M341.8,751.5c1.3,0,2.6,1.1,2.6,2.6c0,1.5-1.1,2.6-2.6,2.6c-1.5,0-2.6-1.1-2.6-2.6
		C339.2,752.6,340.5,751.5,341.8,751.5z M341.8,761.1c1.3,0,2.6,1.1,2.6,2.6s-1.1,2.6-2.6,2.6c-1.5,0-2.6-1.1-2.6-2.6
		S340.5,761.1,341.8,761.1z M332.3,693.3c1.3,0,2.6,1.1,2.6,2.6c0,1.3-1.1,2.6-2.6,2.6c-1.5,0-2.6-1.1-2.6-2.6
		S330.7,693.3,332.3,693.3z M332.3,712.7c1.3,0,2.6,1.1,2.6,2.6s-1.1,2.6-2.6,2.6c-1.5,0-2.6-1.1-2.6-2.6S330.7,712.7,332.3,712.7z
		 M332.3,751.5c1.3,0,2.6,1.1,2.6,2.6c0,1.5-1.1,2.6-2.6,2.6c-1.5,0-2.6-1.1-2.6-2.6C329.6,752.6,330.7,751.5,332.3,751.5z
		 M332.3,795.1c-1.3,0-2.6-1.1-2.6-2.6c0-1.5,1.1-2.6,2.6-2.6c1.5,0,2.6,1.1,2.6,2.6C334.9,794.1,333.4,795.1,332.3,795.1z
		 M335.2,775.7c-0.5,0-1.3-0.2-1.5-0.5c-0.5,0.2-1.1,0.5-1.5,0.5c-1.3,0-2.6-1.1-2.6-2.6c0-1.5,1.1-2.6,2.6-2.6
		c0.5,0,1.3,0.2,1.5,0.5c0.5-0.2,1.1-0.5,1.5-0.5c1.3,0,2.6,1.1,2.6,2.6C337.9,774.8,336.8,775.7,335.2,775.7z M341.8,795.1
		c-1.3,0-2.6-1.1-2.6-2.6c0-1.5,1.1-2.6,2.6-2.6c1.5,0,2.6,1.1,2.6,2.6C344.4,794.1,343.2,795.1,341.8,795.1z M341.8,785.6
		c-1.3,0-2.6-1.1-2.6-2.6c0-1.5,1.1-2.6,2.6-2.6c1.5,0,2.6,1.1,2.6,2.6C344.4,784.5,343.2,785.6,341.8,785.6z M361.3,795.1
		c-1.3,0-2.6-1.1-2.6-2.6c0-1.5,1.1-2.6,2.6-2.6c1.5,0,2.6,1.1,2.6,2.6C364,794.1,362.7,795.1,361.3,795.1z M363.6,783L363.6,783
		L363.6,783c0,1.3-1.1,2.6-2.6,2.6c-1.5,0-2.6-1.1-2.6-2.6c0-1.5,1.1-2.6,2.6-2.6l0,0l0,0c0-1.3,1.1-2.6,2.6-2.6
		c1.3,0,2.6,1.1,2.6,2.6S365.2,783,363.6,783z M370.9,795.1c-1.3,0-2.6-1.1-2.6-2.6c0-1.5,1.1-2.6,2.6-2.6c1.5,0,2.6,1.1,2.6,2.6
		C373.5,794.1,372.4,795.1,370.9,795.1z M380.7,795.1c-1.3,0-2.6-1.1-2.6-2.6c0-1.5,1.1-2.6,2.6-2.6s2.6,1.1,2.6,2.6
		C383.3,794.1,382,795.1,380.7,795.1z M380.7,785.6c-1.3,0-2.6-1.1-2.6-2.6c0-1.5,1.1-2.6,2.6-2.6s2.6,1.1,2.6,2.6
		C383.3,784.5,382,785.6,380.7,785.6z M390.2,795.1c-1.3,0-2.6-1.1-2.6-2.6c0-1.5,1.1-2.6,2.6-2.6s2.6,1.1,2.6,2.6
		C392.8,794.1,391.7,795.1,390.2,795.1z M390.2,775.7c-1.3,0-2.6-1.1-2.6-2.6c0-1.5,1.1-2.6,2.6-2.6s2.6,1.1,2.6,2.6
		C392.8,774.8,391.7,775.7,390.2,775.7z M392.8,753.9L392.8,753.9L392.8,753.9c0,1.3-1.1,2.6-2.6,2.6l0,0l0,0c0,1.3-1.1,2.6-2.6,2.6
		l0,0l0,0c0,1.3-1.1,2.6-2.6,2.6l0,0l0,0c0,1.1-0.5,1.8-1.5,2.3c-0.5,3.3-1.1,5.7-2,7.3c0.7,0.5,1.5,1.3,1.5,2.3
		c0,1.3-1.1,2.6-2.6,2.6c-1.1,0-2-0.7-2.3-1.8c-1.8,1.1-4.4,1.3-7.5,1.5c0,0,0,0,0,0.2c0,1.3-1.1,2.6-2.6,2.6
		c-1.3,0-2.6-1.1-2.6-2.6c-1.1,0-2.3,0-3.3,0c-1.8,0-5.7,0-9.8,0v-0.5c-0.2,0.2-0.7,0.2-1.3,0.2c-0.5,0-1.3-0.2-1.5-0.5
		c-0.5,0.2-1.1,0.5-1.5,0.5s-1.3-0.2-1.5-0.5c-0.5,0.2-1.1,0.5-1.5,0.5c-1.3,0-2.6-1.1-2.6-2.6s1.1-2.6,2.6-2.6
		c0.5,0,1.3,0.2,1.5,0.5c0.5-0.2,1.1-0.5,1.5-0.5s1.3,0.2,1.5,0.5c0.5-0.2,1.1-0.5,1.5-0.5c0.5,0,0.7,0.2,1.3,0.2V756
		c-0.2,0.2-0.7,0.2-1.3,0.2c-1.3,0-2.6-1.1-2.6-2.6s1.1-2.6,2.6-2.6c0.5,0,0.7,0.2,1.3,0.2v-14.9c-0.2,0.2-0.7,0.2-1.3,0.2
		c-1.3,0-2.6-1.1-2.6-2.6s1.1-2.6,2.6-2.6c0.5,0,0.7,0.2,1.3,0.2v-14.9c-0.2,0.2-0.7,0.2-1.3,0.2c-1.3,0-2.6-1.1-2.6-2.6
		c0-1.5,1.1-2.6,2.6-2.6c0.7,0,1.3,0.2,1.8,0.7c2.9,0,6.7,0,9.3,0c7.5,0,12.4,0.2,15.7,1.8c0-1.3,1.1-2.3,2.6-2.3
		c1.3,0,2.6,1.1,2.6,2.6c0,1.3-0.7,2-1.8,2.3c3.1,4.2,3.3,12.2,3.3,27.8c0,4.4,0,8.2-0.2,11.3c0.2,0,0.5-0.2,1.1-0.2l0,0l0,0
		c0-1.3,1.1-2.6,2.6-2.6l0,0l0,0c0-1.3,1.1-2.6,2.6-2.6l0,0l0,0c0-1.3,1.1-2.6,2.6-2.6c1.5,0,2.6,1.1,2.6,2.6
		C395.8,752,394,753.9,392.8,753.9z"/>
	<path fill="#47555D" d="M213.9,690h-74.7c-1.3,0-2.3,1.1-2.3,2.3v18.6c0,0.7,0.2,1.3,0.7,1.8c0.5,0.5,1.1,0.7,1.8,0.7
		c0,0,19.8-0.2,24-0.2v57.9c0.2-0.2,0.7-0.2,1.3-0.2c1.3,0,2.6,1.1,2.6,2.6c0,1.5-1.1,2.6-2.6,2.6c-0.5,0-0.7-0.2-1.3-0.2v21.1
		c0,1.3,1.1,2.3,2.3,2.3h9.3V799c0-0.5,0.2-1.3,0.5-1.5c-0.2-0.5-0.5-1.1-0.5-1.5c0-0.5,0.2-1.3,0.5-1.5c-0.2-0.5-0.5-1.1-0.5-1.5
		s0.2-1.3,0.5-1.5c-0.2-0.5-0.5-1.1-0.5-1.5s0.2-1.3,0.5-1.5c-0.2-0.5-0.5-1.1-0.5-1.5s0.2-1.3,0.5-1.5c-0.2-0.5-0.5-1.1-0.5-1.5
		c0-1.3,1.1-2.6,2.6-2.6c1.3,0,2.6,1.1,2.6,2.6c0,0.5-0.2,1.3-0.5,1.5c0.2,0.5,0.5,1.1,0.5,1.5s-0.2,1.3-0.5,1.5
		c0.2,0.5,0.5,1.1,0.5,1.5s-0.2,1.3-0.5,1.5c0.2,0.5,0.5,1.1,0.5,1.5s-0.2,1.3-0.5,1.5c0.2,0.5,0.5,1.1,0.5,1.5
		c0,0.5-0.2,1.3-0.5,1.5c0.2,0.5,0.5,1.1,0.5,1.5v0.2h8c1.3,0,2.3-1.1,2.3-2.3v-21.1l0,0c-0.5,0-1.3-0.2-1.5-0.5
		c-0.5,0.2-1.1,0.5-1.5,0.5c-1.3,0-2.6-1.1-2.6-2.6c0-1.5,1.1-2.6,2.6-2.6c0.5,0,1.3,0.2,1.5,0.5c0.5-0.2,1.1-0.5,1.5-0.5l0,0v-52.8
		l0,0c-0.5,0-1.3-0.2-1.5-0.5c-0.5,0.2-1.1,0.5-1.5,0.5c-0.5,0-1.3-0.2-1.5-0.5c-0.5,0.2-1.1,0.5-1.5,0.5c-1.3,0-2.6-1.1-2.6-2.6
		s1.1-2.6,2.6-2.6c0.5,0,1.3,0.2,1.5,0.5c0.5-0.2,1.1-0.5,1.5-0.5s1.3,0.2,1.5,0.5c0.5-0.2,1.1-0.5,1.5-0.5c0.5,0,0.7,0,1.1,0.2
		c5.7,0,22.9,0.2,22.9,0.2c0.7,0,1.3-0.2,1.8-0.7c0.5-0.5,0.7-1.1,0.7-1.8v-18.6C216.5,691,215.4,690,213.9,690z M157.7,698.2
		c-1.3,0-2.6-1.1-2.6-2.6c0-1.3,1.1-2.6,2.6-2.6c1.5,0,2.6,1.1,2.6,2.6C160.4,697.2,159.3,698.2,157.7,698.2z M186.8,722.4
		c1.3,0,2.6,1.1,2.6,2.6s-1.1,2.6-2.6,2.6c-1.5,0-2.6-1.1-2.6-2.6C184.3,723.5,185.5,722.4,186.8,722.4z M186.8,751.5
		c1.3,0,2.6,1.1,2.6,2.6c0,1.5-1.1,2.6-2.6,2.6c-1.5,0-2.6-1.1-2.6-2.6C184.3,752.6,185.5,751.5,186.8,751.5z M186.8,761.1
		c1.3,0,2.6,1.1,2.6,2.6s-1.1,2.6-2.6,2.6c-1.5,0-2.6-1.1-2.6-2.6S185.5,761.1,186.8,761.1z M186.8,780.4c1.3,0,2.6,1.1,2.6,2.6
		c0,1.5-1.1,2.6-2.6,2.6c-1.5,0-2.6-1.1-2.6-2.6C184.2,781.4,185.5,780.4,186.8,780.4z M186.8,790.1c1.3,0,2.6,1.1,2.6,2.6
		c0,1.5-1.1,2.6-2.6,2.6c-1.5,0-2.6-1.1-2.6-2.6C184.3,791.2,185.5,790.1,186.8,790.1z M177,732c1.3,0,2.6,1.1,2.6,2.6
		c0,1.5-1.1,2.6-2.6,2.6c-1.3,0-2.6-1.1-2.6-2.6C174.5,733,175.7,732,177,732z M174.8,747.5c0-0.5,0.2-1.3,0.5-1.5
		c-0.2-0.5-0.5-1.1-0.5-1.5c0-1.3,1.1-2.6,2.6-2.6c1.3,0,2.6,1.1,2.6,2.6c0,0.5-0.2,1.3-0.5,1.5c0.2,0.5,0.5,1.1,0.5,1.5
		s-0.2,1.3-0.5,1.5c0.2,0.5,0.5,1.1,0.5,1.5c0,1.3-1.1,2.6-2.6,2.6c-1.3,0-2.6-1.1-2.6-2.6c0-0.5,0.2-1.3,0.5-1.5
		C175,748.7,174.8,748.2,174.8,747.5z M167.5,795.1c-1.3,0-2.6-1.1-2.6-2.6c0-1.5,1.1-2.6,2.6-2.6c1.5,0,2.6,1.1,2.6,2.6
		C170.1,794.1,168.8,795.1,167.5,795.1z M167.5,785.6c-1.3,0-2.6-1.1-2.6-2.6c0-1.5,1.1-2.6,2.6-2.6c1.5,0,2.6,1.1,2.6,2.6
		C170.1,784.5,168.8,785.6,167.5,785.6z M167.5,765.9c-1.3,0-2.6-1.1-2.6-2.6s1.1-2.6,2.6-2.6c1.5,0,2.6,1.1,2.6,2.6
		S168.8,765.9,167.5,765.9z M167.5,756.4c-1.3,0-2.6-1.1-2.6-2.6s1.1-2.6,2.6-2.6c1.5,0,2.6,1.1,2.6,2.6
		C170.1,755.4,168.8,756.4,167.5,756.4z M167.5,737.1c-1.3,0-2.6-1.1-2.6-2.6c0-1.5,1.1-2.6,2.6-2.6c1.5,0,2.6,1.1,2.6,2.6
		S168.8,737.1,167.5,737.1z M167.5,698.2c-1.3,0-2.6-1.1-2.6-2.6c0-1.3,1.1-2.6,2.6-2.6c1.5,0,2.6,1.1,2.6,2.6
		C170.1,697.2,168.8,698.2,167.5,698.2z M183,773.2c0,1.3-1.1,2.6-2.6,2.6c-0.5,0-1.3-0.2-1.5-0.5c-0.5,0.2-1.1,0.5-1.5,0.5
		c-0.5,0-1.3-0.2-1.5-0.5c-0.5,0.2-1.1,0.5-1.5,0.5c-1.3,0-2.6-1.1-2.6-2.6c0-1.5,1.1-2.6,2.6-2.6c0.2,0,0.5,0,1.1,0.2
		c0-0.2-0.2-0.5-0.2-1.1c0-0.5,0.2-1.3,0.5-1.5c-0.2-0.5-0.5-1.1-0.5-1.5s0.2-1.3,0.5-1.5c-0.2-0.5-0.5-1.1-0.5-1.5s0.2-1.3,0.5-1.5
		c-0.2-0.5-0.5-1.1-0.5-1.5c0-1.3,1.1-2.6,2.6-2.6c1.3,0,2.6,1.1,2.6,2.6c0,0.5-0.2,1.3-0.5,1.5c0.2,0.5,0.5,1.1,0.5,1.5
		s-0.2,1.3-0.5,1.5c0.2,0.5,0.5,1.1,0.5,1.5s-0.2,1.3-0.5,1.5c0.2,0.5,0.5,1.1,0.5,1.5c0,0.2,0,0.5-0.2,1.1c0.2,0,0.5-0.2,1.1-0.2
		C181.7,770.8,183,771.9,183,773.2z M196.6,698.2c-1.3,0-2.6-1.1-2.6-2.6c0-1.3,1.1-2.6,2.6-2.6c1.5,0,2.6,1.1,2.6,2.6
		C199,697.2,197.9,698.2,196.6,698.2z M206.1,708c-1.3,0-2.6-1.1-2.6-2.6c0-1.3,1.1-2.6,2.6-2.6c1.5,0,2.6,1.1,2.6,2.6
		C208.8,706.9,207.7,708,206.1,708z"/>
	<path fill="#47555D" d="M301.7,776.8c-0.5-0.5-1.1-0.7-1.8-0.7c0,0-37.9,0.5-40.4,0.5v-20.9c4.2,0,29.1,0.5,29.1,0.5
		c0.7,0,1.3-0.2,1.8-0.7s0.7-1.1,0.7-1.8v-18.6c0-0.7-0.2-1.3-0.7-1.8c-0.5-0.5-1.1-0.7-1.8-0.7c0,0-1.3,0-3.3,0
		c0.5,0.5,0.7,1.1,0.7,1.8c0,1.3-1.1,2.6-2.6,2.6c-1.5,0-2.6-1.1-2.6-2.6c0-0.7,0.2-1.3,0.7-1.8c-1.8,0-3.8,0-6.2,0
		c0.5,0.5,0.7,1.1,0.7,1.5c0,1.3-1.1,2.6-2.6,2.6s-2.6-1.1-2.6-2.6c0-0.5,0.2-1.1,0.5-1.5c-2,0-4.2,0-6,0c0.2,0.5,0.5,0.7,0.5,1.5
		c0,1.3-1.1,2.6-2.6,2.6c-0.5,0-1.3-0.2-1.5-0.5c-0.5,0.2-1.1,0.5-1.5,0.5c-0.5,0-1.3-0.2-1.5-0.5c-0.5,0.2-1.1,0.5-1.5,0.5
		c-0.5,0-1.3-0.2-1.5-0.5c-0.5,0.2-1.1,0.5-1.5,0.5c-0.5,0-1.3-0.2-1.5-0.5c-0.5,0.2-1.1,0.5-1.5,0.5c-0.5,0-1.3-0.2-1.5-0.5
		c-0.5,0.2-1.1,0.5-1.5,0.5c-1.3,0-2.6-1.1-2.6-2.6s1.1-2.6,2.6-2.6c0.5,0,1.3,0.2,1.5,0.5c0.5-0.2,1.1-0.5,1.5-0.5s1.3,0.2,1.5,0.5
		c0.5-0.2,1.1-0.5,1.5-0.5c0.5,0,1.3,0.2,1.5,0.5c0.5-0.2,1.1-0.5,1.5-0.5c0.5,0,1.3,0.2,1.5,0.5l0,0v-19.8c2.6,0,40.4,0.5,40.4,0.5
		c0.7,0,1.3-0.2,1.8-0.7c0.5-0.5,0.7-1.1,0.7-1.8v-18.6c0-1.3-1.1-2.3-2.3-2.3h-65c-1.3,0-2.3,1.1-2.3,2.3v39.9
		c0.5,0,0.7,0.2,1.3,0.5c0.5-0.2,1.1-0.5,1.5-0.5s1.3,0.2,1.5,0.5c0.5-0.2,1.1-0.5,1.5-0.5c1.3,0,2.6,1.1,2.6,2.6
		c0,1.5-1.1,2.6-2.6,2.6c-0.5,0-1.3-0.2-1.5-0.5c-0.5,0.2-1.1,0.5-1.5,0.5c-0.5,0-1.3-0.2-1.5-0.5c-0.2,0.2-0.7,0.5-1.3,0.5v30.2
		c0.2,0.2,0.2,0.7,0.2,1.1l0,0l0,0c1.3,0,2.6,1.1,2.6,2.6l0,0l0,0c1.3,0,2.6,1.1,2.6,2.6l0,0l0,0c1.3,0,2.6,1.1,2.6,2.6
		s-1.1,2.6-2.6,2.6s-2.6-1.1-2.6-2.6l0,0l0,0c-0.5,0-1.3-0.2-1.5-0.5c-0.2,0.2-0.7,0.5-1.3,0.5v21.3c0,1.3,1.1,2.3,2.3,2.3H257
		c-0.5-0.5-0.7-1.1-0.7-1.8l0,0l0,0c-1.3,0-2.6-1.1-2.6-2.6l0,0l0,0c-1.3,0-2.6-1.1-2.6-2.6l0,0l0,0c-1.3,0-2.6-1.1-2.6-2.6l0,0l0,0
		c-1.3,0-2.6-1.1-2.6-2.6s1.1-2.6,2.6-2.6c1.5,0,2.6,1.1,2.6,2.6l0,0l0,0c1.3,0,2.6,1.1,2.6,2.6l0,0l0,0c1.3,0,2.6,1.1,2.6,2.6l0,0
		l0,0c1.3,0,2.6,1.1,2.6,2.6l0,0l0,0c1.3,0,2.6,1.1,2.6,2.6l0,0l0,0c1.1,0,2,0.7,2.3,1.8h35.5c1.3,0,2.3-1.1,2.3-2.3v-18.6
		C302.6,777.9,302.3,777,301.7,776.8z M283.7,741.7c1.3,0,2.6,1.1,2.6,2.6c0,1.3-1.1,2.6-2.6,2.6s-2.6-1.1-2.6-2.6
		C281.1,742.8,282.4,741.7,283.7,741.7z M283.7,703.1c1.3,0,2.6,1.1,2.6,2.6c0,1.3-1.1,2.6-2.6,2.6s-2.6-1.1-2.6-2.6
		C281.1,704.1,282.4,703.1,283.7,703.1z M274,693.3c1.3,0,2.6,1.1,2.6,2.6c0,1.3-1.1,2.6-2.6,2.6c-1.5,0-2.6-1.1-2.6-2.6
		C271.7,694.3,272.7,693.3,274,693.3z M254.7,712.7c1.3,0,2.6,1.1,2.6,2.6s-1.1,2.6-2.6,2.6c-1.5,0-2.6-1.1-2.6-2.6
		S253.3,712.7,254.7,712.7z M235.3,717.8c-1.3,0-2.6-1.1-2.6-2.6s1.1-2.6,2.6-2.6c1.3,0,2.6,1.1,2.6,2.6S236.5,717.8,235.3,717.8z
		 M235.3,795.1c-1.3,0-2.6-1.1-2.6-2.6c0-1.5,1.1-2.6,2.6-2.6c1.3,0,2.6,1.1,2.6,2.6C238,794.1,236.5,795.1,235.3,795.1z
		 M245.1,693.3c1.3,0,2.6,1.1,2.6,2.6c0,1.3-1.1,2.6-2.6,2.6c-1.5,0-2.6-1.1-2.6-2.6S243.6,693.3,245.1,693.3z M245.1,722.4
		c1.3,0,2.6,1.1,2.6,2.6s-1.1,2.6-2.6,2.6c-1.5,0-2.6-1.1-2.6-2.6C242.5,723.5,243.6,722.4,245.1,722.4z M247.4,792.8
		c0,1.3-1.1,2.6-2.6,2.6c-1.5,0-2.6-1.1-2.6-2.6s1.1-2.6,2.6-2.6C246.4,790.1,247.4,791.2,247.4,792.8z M245.1,785.6
		c-1.3,0-2.6-1.1-2.6-2.6l0,0l0,0c-1.3,0-2.6-1.1-2.6-2.6s1.1-2.6,2.6-2.6c1.5,0,2.6,1.1,2.6,2.6l0,0l0,0c1.3,0,2.6,1.1,2.6,2.6
		C247.7,784.5,246.4,785.6,245.1,785.6z M245.1,775.7c-1.3,0-2.6-1.1-2.6-2.6c0-1.5,1.1-2.6,2.6-2.6c1.5,0,2.6,1.1,2.6,2.6
		C247.6,774.8,246.4,775.7,245.1,775.7z M245.1,765.9c-1.3,0-2.6-1.1-2.6-2.6s1.1-2.6,2.6-2.6c1.5,0,2.6,1.1,2.6,2.6
		S246.4,765.9,245.1,765.9z M245.1,746.6c-1.3,0-2.6-1.1-2.6-2.6c0-1.3,1.1-2.6,2.6-2.6c1.5,0,2.6,1.1,2.6,2.6
		C247.4,745.6,246.4,746.6,245.1,746.6z M254.7,775.7c-1.3,0-2.6-1.1-2.6-2.6c0-1.5,1.1-2.6,2.6-2.6c1.5,0,2.6,1.1,2.6,2.6
		C257.2,774.8,256,775.7,254.7,775.7z M254.7,756.4c-1.3,0-2.6-1.1-2.6-2.6s1.1-2.6,2.6-2.6c1.5,0,2.6,1.1,2.6,2.6
		C257.2,755.4,256,756.4,254.7,756.4z M264.4,795.1c-1.3,0-2.6-1.1-2.6-2.6c0-1.5,1.1-2.6,2.6-2.6c1.3,0,2.6,1.1,2.6,2.6
		C267,794.1,265.7,795.1,264.4,795.1z M264.4,785.6c-1.3,0-2.6-1.1-2.6-2.6c0-1.5,1.1-2.6,2.6-2.6c1.3,0,2.6,1.1,2.6,2.6
		C267,784.5,265.7,785.6,264.4,785.6z M274,795.1c-1.3,0-2.6-1.1-2.6-2.6c0-1.5,1.1-2.6,2.6-2.6c1.5,0,2.6,1.1,2.6,2.6
		C276.6,794.1,275.5,795.1,274,795.1z M283.7,795.1c-1.3,0-2.6-1.1-2.6-2.6c0-1.5,1.1-2.6,2.6-2.6s2.6,1.1,2.6,2.6
		C286.4,794.1,285,795.1,283.7,795.1z M283.7,785.6c-1.3,0-2.6-1.1-2.6-2.6c0-1.5,1.1-2.6,2.6-2.6s2.6,1.1,2.6,2.6
		C286.4,784.5,285,785.6,283.7,785.6z M293.3,795.1c-1.3,0-2.6-1.1-2.6-2.6c0-1.5,1.1-2.6,2.6-2.6c1.5,0,2.6,1.1,2.6,2.6
		C295.9,794.1,294.8,795.1,293.3,795.1z"/>
	<path fill="#47555D" d="M119.1,756.4c-1.3,0-2.6-1.1-2.6-2.6s1.1-2.6,2.6-2.6l0,0l0,0c0-0.5,0.2-1.1,0.5-1.5
		c-2.3-4.9-6.4-8.2-14.2-11.6l-4.2-1.5c-0.5,0.2-1.1,0.5-1.5,0.5s-1.3-0.2-1.5-0.5c-0.5,0.2-1.1,0.5-1.5,0.5s-1.3-0.2-1.5-0.5
		c-0.5,0.2-1.1,0.5-1.5,0.5c-0.5,0-1.3-0.2-1.5-0.5c-0.5,0.2-1.1,0.5-1.5,0.5s-1.3-0.2-1.5-0.5c-0.5,0.2-1.1,0.5-1.5,0.5
		s-1.3-0.2-1.5-0.5c-0.5,0.2-1.1,0.5-1.5,0.5c-1.3,0-2.6-1.1-2.6-2.6s1.1-2.6,2.6-2.6c0.5,0,1.3,0.2,1.5,0.5
		c0.5-0.2,1.1-0.5,1.5-0.5s1.3,0.2,1.5,0.5c0.5-0.2,1.1-0.5,1.5-0.5s1.3,0.2,1.5,0.5h0.2c-8.2-3.3-11.6-4.6-12.2-4.9
		c-3.8-1.8-3.8-2.6-3.8-6.7v-2c0-2.9,0.2-4.4,1.1-5.4c0.5-0.5,1.5-1.3,4.9-1.3l11.6,0.2l8.8,0.5l13.1,0.5c0.7,0,1.3-0.2,1.8-0.7
		s0.7-1.1,0.7-1.8V692c0-1.3-1.1-2.3-2.3-2.3l-8-0.5c-6.2-0.5-10.3-0.7-17.5-0.7c-7.3,0-12.9,0-18,0.7c-11.8,1.5-17.8,7.3-20.4,13.4
		c1.3,0.2,2,1.3,2,2.3c0,1.3-1.1,2.6-2.6,2.6c-0.5,0-0.7,0-1.1-0.2c-1.1,4.2-1.1,8.2-1.1,11.8c0,20.1,4.4,24,21.9,31.2l6.9,2.9
		c0.2-1.3,1.3-2,2.3-2c1.3,0,2.6,1.1,2.6,2.6c0,0.5-0.2,1.1-0.5,1.3l9.1,3.6c4.2,1.5,4.2,2.6,3.8,8.2c0,0,0,2,0,4.2
		c0.2-0.2,0.7-0.5,1.3-0.5s1.3,0.2,1.5,0.5l0,0c0.5-0.5,1.1-1.1,1.8-1.1l0,0l0,0c0-1.3,1.1-2.6,2.6-2.6l0,0l0,0
		c0-1.3,1.1-2.6,2.6-2.6c1.3,0,2.6,1.1,2.6,2.6c0,1.3-1.1,2.6-2.6,2.6l0,0l0,0c0,0.2,0,0.5-0.2,0.7c0.2-0.2,0.7-0.5,1.3-0.5
		c1.3,0,2.6,1.1,2.6,2.6c0,1.3-1.1,2.6-2.6,2.6c-0.5,0-1.3-0.2-1.5-0.5c-0.5,0.2-1.1,0.5-1.5,0.5s-1.3-0.2-1.5-0.5
		c-0.2,0.2-0.7,0.5-1.3,0.5c-0.2,1.3-1.1,2.3-2.3,2.3l0,0l0,0c0,1.3-1.1,2.6-2.6,2.6l0,0l0,0c0,1.3-1.1,2.6-2.6,2.6l0,0l0,0
		c0,1.3-1.1,2.6-2.6,2.6c-1.3,0-2.6-1.1-2.6-2.6c0-1.3,1.1-2.6,2.6-2.6l0,0l0,0c0-1.3,1.1-2.6,2.6-2.6l0,0l0,0c0-0.2,0-0.7,0.2-1.1
		c-1.8,0.2-4.6,0.2-7.7,0.2c-10.3,0-14.9-0.2-18.2-0.5l-14.7-1.1c-0.7,0-1.3,0.2-1.8,0.7c-0.5,0.5-0.7,1.1-0.7,1.8v3.3
		c0.5-0.5,1.1-0.7,1.5-0.7c1.3,0,2.6,1.1,2.6,2.6c0,1.5-1.1,2.6-2.6,2.6c-0.5,0-1.3-0.2-1.5-0.7v6c0.5-0.5,1.1-0.7,1.5-0.7
		c1.3,0,2.6,1.1,2.6,2.6s-1.1,2.6-2.6,2.6c-0.5,0-1.3-0.2-1.5-0.7v2.3c0,1.3,1.1,2.3,2.3,2.3c2.9,0.2,10,0.7,17.5,1.3
		c0.2,0,0.5-0.2,1.1-0.2l0,0l0,0c0-1.3,1.1-2.6,2.6-2.6l0,0l0,0c0-1.3,1.1-2.6,2.6-2.6l0,0l0,0c0-1.3,1.1-2.6,2.6-2.6l0,0l0,0
		c0-1.3,1.1-2.6,2.6-2.6l0,0l0,0c0-1.3,1.1-2.6,2.6-2.6l0,0l0,0c0-1.3,1.1-2.6,2.6-2.6c1.5,0,2.6,1.1,2.6,2.6c0,1.5-1.1,2.6-2.6,2.6
		l0,0l0,0c0,1.3-1.1,2.6-2.6,2.6l0,0l0,0c0,1.3-1.1,2.6-2.6,2.6l0,0l0,0c0,1.3-1.1,2.6-2.6,2.6l0,0l0,0c0,1.3-1.1,2.6-2.6,2.6l0,0
		l0,0c0,0.2,0,0.2,0,0.5h0.7c2.3,0,4.6,0.2,6.7,0.2c13.4,0,29.3-1.5,35.8-13.1l0,0c2.9-5.4,3.3-15.3,3.3-22.9c0-3.6-0.2-6.7-0.5-9.5
		C120.7,755.9,119.8,756.4,119.1,756.4z M99.8,693.3c1.3,0,2.6,1.1,2.6,2.6c0,1.3-1.1,2.6-2.6,2.6c-1.5,0-2.6-1.1-2.6-2.6
		S98.3,693.3,99.8,693.3z M89.9,703.1c1.3,0,2.6,1.1,2.6,2.6c0,1.3-1.1,2.6-2.6,2.6c-1.3,0-2.6-1.1-2.6-2.6
		C87.4,704.1,88.7,703.1,89.9,703.1z M70.6,693.3c1.3,0,2.6,1.1,2.6,2.6c0,1.3-1.1,2.6-2.6,2.6c-1.5,0-2.6-1.1-2.6-2.6
		S69.4,693.3,70.6,693.3z M70.6,722.4c1.3,0,2.6,1.1,2.6,2.6s-1.1,2.6-2.6,2.6c-1.5,0-2.6-1.1-2.6-2.6
		C68.1,723.5,69.4,722.4,70.6,722.4z M60.8,737.1c-1.3,0-2.6-1.1-2.6-2.6c0-1.5,1.1-2.6,2.6-2.6c1.3,0,2.6,1.1,2.6,2.6
		S62.4,737.1,60.8,737.1z M70.6,746.6c-1.3,0-2.6-1.1-2.6-2.6c0-1.3,1.1-2.6,2.6-2.6s2.6,1.1,2.6,2.6S71.9,746.6,70.6,746.6z
		 M77,737.1c-0.5,0-1.3-0.2-1.5-0.5c-0.5,0.2-1.1,0.5-1.5,0.5c-0.5,0-1.3-0.2-1.5-0.5c-0.5,0.2-1.1,0.5-1.5,0.5
		c-1.3,0-2.6-1.1-2.6-2.6c0-1.5,1.1-2.6,2.6-2.6c0.5,0,1.3,0.2,1.5,0.5c0.5-0.2,1.1-0.5,1.5-0.5c0.5,0,1.3,0.2,1.5,0.5
		c0.5-0.2,1.1-0.5,1.5-0.5c1.3,0,2.6,1.1,2.6,2.6C79.7,736,78.3,737.1,77,737.1z M89.9,746.6c-1.3,0-2.6-1.1-2.6-2.6
		c0-1.3,1.1-2.6,2.6-2.6c1.3,0,2.6,1.1,2.6,2.6S91.2,746.6,89.9,746.6z M99.8,756.4c-1.3,0-2.6-1.1-2.6-2.6s1.1-2.6,2.6-2.6
		c1.5,0,2.6,1.1,2.6,2.6C102.3,755.4,101,756.4,99.8,756.4z M60.8,795.1c-1.3,0-2.6-1.1-2.6-2.6c0-1.5,1.1-2.6,2.6-2.6
		c1.3,0,2.6,1.1,2.6,2.6C63.4,794.1,62.4,795.1,60.8,795.1z M70.6,795.1c-1.3,0-2.6-1.1-2.6-2.6c0-1.5,1.1-2.6,2.6-2.6
		s2.6,1.1,2.6,2.6C73.2,794.1,71.9,795.1,70.6,795.1z M70.6,785.6c-1.3,0-2.6-1.1-2.6-2.6c0-1.5,1.1-2.6,2.6-2.6s2.6,1.1,2.6,2.6
		C73.2,784.5,71.9,785.6,70.6,785.6z M89.9,795.1c-1.3,0-2.6-1.1-2.6-2.6c0-1.5,1.1-2.6,2.6-2.6c1.3,0,2.6,1.1,2.6,2.6
		C92.5,794.1,91.2,795.1,89.9,795.1z M99.8,795.1c-1.3,0-2.6-1.1-2.6-2.6c0-1.5,1.1-2.6,2.6-2.6c1.5,0,2.6,1.1,2.6,2.6
		C102.4,794.1,101,795.1,99.8,795.1z M109.3,741.7c1.3,0,2.6,1.1,2.6,2.6c0,1.3-1.1,2.6-2.6,2.6c-1.5,0-2.6-1.1-2.6-2.6
		C107,742.8,108,741.7,109.3,741.7z M107,753.9c0-1.3,1.1-2.6,2.6-2.6c1.5,0,2.6,1.1,2.6,2.6s-1.1,2.6-2.6,2.6
		C108,756.5,107,755.4,107,753.9z M109.3,795.1c-1.3,0-2.6-1.1-2.6-2.6c0-1.5,1.1-2.6,2.6-2.6c1.5,0,2.6,1.1,2.6,2.6
		C112,794.1,110.9,795.1,109.3,795.1z M109.3,785.6c-1.3,0-2.6-1.1-2.6-2.6c0-1.5,1.1-2.6,2.6-2.6c1.5,0,2.6,1.1,2.6,2.6
		C112,784.5,110.9,785.6,109.3,785.6z M111.6,763.9c-1.3,0-2.6-1.1-2.6-2.6s1.1-2.6,2.6-2.6l0,0l0,0c0-1.3,1.1-2.6,2.6-2.6
		c1.5,0,2.6,1.1,2.6,2.6s-1.1,2.6-2.6,2.6l0,0l0,0C113.9,762.8,112.9,763.9,111.6,763.9z M119.1,775.7c-0.5,0-1.3-0.2-1.5-0.5
		c-0.5,0.2-1.1,0.5-1.5,0.5c-1.3,0-2.6-1.1-2.6-2.6c0-1.5,1.1-2.6,2.6-2.6c0.5,0,1.3,0.2,1.5,0.5c0.5-0.2,1.1-0.5,1.5-0.5
		c1.3,0,2.6,1.1,2.6,2.6C121.6,774.8,120.4,775.7,119.1,775.7z"/>
	<path fill="#47555D" d="M506.4,795.1c1.3,0,2.6-1.1,2.6-2.6c0-1.5-1.1-2.6-2.6-2.6s-2.6,1.1-2.6,2.6
		C503.8,794.1,505.1,795.1,506.4,795.1z M564.6,795.1c1.3,0,2.6-1.1,2.6-2.6c0-1.5-1.1-2.6-2.6-2.6s-2.6,1.1-2.6,2.6
		C562,794.1,563.4,795.1,564.6,795.1z M574.5,795.1c1.3,0,2.6-1.1,2.6-2.6c0-1.5-1.1-2.6-2.6-2.6s-2.6,1.1-2.6,2.6
		C571.9,794.1,572.9,795.1,574.5,795.1z M499.5,779.6c0-1.3-1.1-2.6-2.6-2.6c-1.5,0-2.6,1.1-2.6,2.6c0,0.5,0.2,1.3,0.5,1.5
		c-0.2,0.5-0.5,1.1-0.5,1.5c0,1.3,1.1,2.6,2.6,2.6c1.5,0,2.6-1.1,2.6-2.6c0-0.5-0.2-1.3-0.5-1.5C499.1,781,499.5,780.4,499.5,779.6z
		 M574.5,785.6c1.3,0,2.6-1.1,2.6-2.6c0-1.5-1.1-2.6-2.6-2.6s-2.6,1.1-2.6,2.6C571.9,784.5,572.9,785.6,574.5,785.6z M574.5,770.8
		c-0.5,0-1.3,0.2-1.5,0.5c-0.5-0.2-1.1-0.5-1.5-0.5s-1.3,0.2-1.5,0.5c-0.5-0.2-1.1-0.5-1.5-0.5c-1.3,0-2.6,1.1-2.6,2.6
		c0,1.5,1.1,2.6,2.6,2.6c0.5,0,1.3-0.2,1.5-0.5c0.5,0.2,1.1,0.5,1.5,0.5s1.3-0.2,1.5-0.5c0.5,0.2,1.1,0.5,1.5,0.5
		c1.3,0,2.6-1.1,2.6-2.6C577,771.9,575.7,770.8,574.5,770.8z M499.5,763.7c0-1.3-1.1-2.6-2.6-2.6c-1.5,0-2.6,1.1-2.6,2.6
		c0,0.5,0.2,1.3,0.5,1.5c-0.2,0.5-0.5,1.1-0.5,1.5c0,1.3,1.1,2.6,2.6,2.6c1.5,0,2.6-1.1,2.6-2.6c0-0.5-0.2-1.3-0.5-1.5
		C499.1,764.6,499.5,764.2,499.5,763.7z M574.5,765.9c1.3,0,2.6-1.1,2.6-2.6s-1.1-2.6-2.6-2.6s-2.6,1.1-2.6,2.6
		S572.9,765.9,574.5,765.9z M499.5,750.8c0-1.3-1.1-2.6-2.6-2.6c-1.5,0-2.6,1.1-2.6,2.6c0,0.5,0.2,1.3,0.5,1.5
		c-0.2,0.5-0.5,1.1-0.5,1.5c0,1.3,1.1,2.6,2.6,2.6c1.5,0,2.6-1.1,2.6-2.6c0-0.5-0.2-1.3-0.5-1.5
		C499.1,751.8,499.5,751.3,499.5,750.8z M506.4,756.4c1.3,0,2.6-1.1,2.6-2.6s-1.1-2.6-2.6-2.6s-2.6,1.1-2.6,2.6
		C503.8,755.4,505.1,756.4,506.4,756.4z M545.3,756.4c1.3,0,2.6-1.1,2.6-2.6s-1.1-2.6-2.6-2.6s-2.6,1.1-2.6,2.6
		C542.8,755.4,543.7,756.4,545.3,756.4z M554.8,756.4c1.3,0,2.6-1.1,2.6-2.6s-1.1-2.6-2.6-2.6c-1.5,0-2.6,1.1-2.6,2.6
		C552.3,755.4,553.5,756.4,554.8,756.4z M574.5,756.4c1.3,0,2.6-1.1,2.6-2.6s-1.1-2.6-2.6-2.6s-2.6,1.1-2.6,2.6
		C571.9,755.4,572.9,756.4,574.5,756.4z M496.9,746.6c1.3,0,2.6-1.1,2.6-2.6c0-1.3-1.1-2.6-2.6-2.6c-1.5,0-2.6,1.1-2.6,2.6
		S495.6,746.6,496.9,746.6z M535.5,746.6c1.3,0,2.6-1.1,2.6-2.6c0-1.3-1.1-2.6-2.6-2.6c-1.3,0-2.6,1.1-2.6,2.6
		C533.2,745.6,534.2,746.6,535.5,746.6z M506.4,732c-0.5,0-1.3,0.2-1.5,0.5c-0.5-0.2-1.1-0.5-1.5-0.5s-1.3,0.2-1.5,0.5
		c-0.5-0.2-1.1-0.5-1.5-0.5c-1.3,0-2.6,1.1-2.6,2.6c0,1.5,1.1,2.6,2.6,2.6c0.5,0,1.3-0.2,1.5-0.5c0.5,0.2,1.1,0.5,1.5,0.5
		s1.3-0.2,1.5-0.5c0.5,0.2,1.1,0.5,1.5,0.5c1.3,0,2.6-1.1,2.6-2.6S508,732,506.4,732z M545.3,732c-0.5,0-1.3,0.2-1.5,0.5
		c-0.5-0.2-1.1-0.5-1.5-0.5c-1.3,0-2.6,1.1-2.6,2.6c0,1.5,1.1,2.6,2.6,2.6c0.5,0,1.3-0.2,1.5-0.5c0.5,0.2,1.1,0.5,1.5,0.5
		c1.3,0,2.6-1.1,2.6-2.6S546.6,732,545.3,732z M567.2,734.6L567.2,734.6L567.2,734.6c0-1.3-1.1-2.6-2.6-2.6l0,0l0,0
		c0-1.3-1.1-2.6-2.6-2.6c-1.5,0-2.6,1.1-2.6,2.6s1.1,2.6,2.6,2.6l0,0l0,0c0,1.3,1.1,2.6,2.6,2.6l0,0l0,0c0,1.3,1.1,2.6,2.6,2.6
		c1.5,0,2.6-1.1,2.6-2.6C569.6,735.5,568.5,734.6,567.2,734.6z M496.9,727.3c1.3,0,2.6-1.1,2.6-2.6s-1.1-2.6-2.6-2.6
		c-1.5,0-2.6,1.1-2.6,2.6S495.6,727.3,496.9,727.3z M506.4,717.8c1.3,0,2.6-1.1,2.6-2.6s-1.1-2.6-2.6-2.6s-2.6,1.1-2.6,2.6
		S505.1,717.8,506.4,717.8z M526,717.8c1.3,0,2.6-1.1,2.6-2.6s-1.1-2.6-2.6-2.6c-1.5,0-2.6,1.1-2.6,2.6S524.4,717.8,526,717.8z
		 M564.6,717.8c1.3,0,2.6-1.1,2.6-2.6s-1.1-2.6-2.6-2.6s-2.6,1.1-2.6,2.6S563.4,717.8,564.6,717.8z M496.9,708
		c1.3,0,2.6-1.1,2.6-2.6c0-1.3-1.1-2.6-2.6-2.6c-1.5,0-2.6,1.1-2.6,2.6C494.3,706.9,495.6,708,496.9,708z M574.5,708
		c1.3,0,2.6-1.1,2.6-2.6c0-1.3-1.1-2.6-2.6-2.6s-2.6,1.1-2.6,2.6S572.9,708,574.5,708z M564.6,698.2c1.3,0,2.6-1.1,2.6-2.6
		c0-1.3-1.1-2.6-2.6-2.6s-2.6,1.1-2.6,2.6C562.1,697.2,563.4,698.2,564.6,698.2z M513.1,732c-1.3,0-2.6,1.1-2.6,2.6
		c0,1.5,1.1,2.6,2.6,2.6c0.5,0,1.3-0.2,1.5-0.5c0.5,0.2,1.1,0.5,1.5,0.5v4.6c-1.3,0-2.3,1.1-2.3,2.6c0,1.3,1.1,2.3,2.3,2.6v4.6
		c-1.3,0-2.3,1.1-2.3,2.6c0,1.5,1.1,2.3,2.3,2.6v4.6c-1.3,0-2.3,1.1-2.3,2.6c0,1.3,1.1,2.3,2.3,2.6v4.6c-0.5,0-1.1,0.2-1.5,0.5
		c-0.5-0.2-1.1-0.5-1.5-0.5c-0.5,0-1.3,0.2-1.5,0.5c-0.5-0.2-1.1-0.5-1.5-0.5s-1.3,0.2-1.5,0.5c-0.5-0.2-1.1-0.5-1.5-0.5
		c-1.3,0-2.6,1.1-2.6,2.6s1.1,2.6,2.6,2.6c0.5,0,1.3-0.2,1.5-0.5c0.5,0.2,1.1,0.5,1.5,0.5s1.3-0.2,1.5-0.5c0.5,0.2,1.1,0.5,1.5,0.5
		c0.5,0,1.3-0.2,1.5-0.5c0.5,0.2,1.1,0.5,1.5,0.5v4.6c-1.3,0-2.3,1.1-2.3,2.6c0,1.3,1.1,2.3,2.3,2.6v4.6c-1.3,0-2.3,1.1-2.3,2.6
		c0,1.3,1.1,2.3,2.3,2.6v1.1c0,1.3-1.1,2.3-2.3,2.3h-14.4v-0.2c0-0.5-0.2-1.3-0.5-1.5c0.2-0.5,0.5-1.1,0.5-1.5s-0.2-1.3-0.5-1.5
		c0.2-0.5,0.5-1.1,0.5-1.5s-0.2-1.3-0.5-1.5c0.2-0.5,0.5-1.1,0.5-1.5c0-1.3-1.1-2.6-2.6-2.6c-1.5,0-2.6,1.1-2.6,2.6
		c0,0.5,0.2,1.3,0.5,1.5c-0.2,0.5-0.5,1.1-0.5,1.5s0.2,1.3,0.5,1.5c-0.2,0.5-0.5,1.1-0.5,1.5s0.2,1.3,0.5,1.5
		c-0.2,0.5-0.5,1.1-0.5,1.5v0.2h-2.6c-1.3,0-2.3-1.1-2.3-2.3v-60.1c0.2,0,0.5,0.2,0.7,0.2c1.3,0,2.6-1.1,2.6-2.6s-1.1-2.6-2.6-2.6
		c-0.2,0-0.5,0-0.7,0.2v-39.9c0-1.3,1.1-2.3,2.3-2.3h17.5c0.5,0,1.3,0.2,1.8,0.5c0,0,1.3,1.3,3.6,3.3c-0.5,0.5-1.1,1.1-1.1,1.8
		c0,1.3,1.1,2.6,2.6,2.6c0.7,0,1.5-0.5,2-1.1c10.3,10,29.1,28.1,36.1,34.8c-1.1,0.2-1.8,1.3-1.8,2.3c0,1.3,1.1,2.6,2.6,2.6
		s2.6-1.1,2.6-2.6c0-1.3-1.1-2.3-2.3-2.3V729c0.5,0.7,1.3,1.5,2.3,1.5c1.3,0,2.6-1.1,2.6-2.6s-1.1-2.6-2.6-2.6l0,0l0,0
		c0-1.3-1.1-2.3-2.3-2.3v-30.2c0-1.3,1.1-2.3,2.3-2.3h22.2c1.3,0,2.3,1.1,2.3,2.3v57c-0.2,0-0.2,0-0.5,0l0,0l0,0
		c0-1.3-1.1-2.6-2.6-2.6l0,0l0,0c0-1.3-1.1-2.6-2.6-2.6l0,0l0,0c0-1.3-1.1-2.6-2.6-2.6s-2.6,1.1-2.6,2.6c0,1.5,1.1,2.6,2.6,2.6l0,0
		l0,0c0,1.3,1.1,2.6,2.6,2.6l0,0l0,0c0,1.3,1.1,2.6,2.6,2.6l0,0l0,0c0,1.3,1.1,2.6,2.6,2.6l0,0l0,0c0,0.5,0.2,1.1,0.5,1.3v41.2
		c0,1.3-1.1,2.3-2.3,2.3h-22.2c-1.3,0-2.3-1.1-2.3-2.3v-11.6c1.3-0.2,2.3-1.1,2.3-2.3c0-1.2-1.1-2.3-2.3-2.3v-4.9
		c0.5,0,1.1-0.2,1.3-0.5c0.5,0.2,1.1,0.5,1.5,0.5c1.3,0,2.6-1.1,2.6-2.6c0-1.5-1.1-2.6-2.6-2.6c-0.5,0-1.3,0.2-1.5,0.5
		c-0.5-0.2-1.1-0.5-1.5-0.5l0,0c-0.5-2.3-2-4.6-3.8-6.4l-3.3-3.3c0,0-13.7-12.6-26.8-24.4c0.5,0.2,1.1,0.5,1.5,0.5s1.3-0.2,1.5-0.5
		c0.5,0.2,1.1,0.5,1.5,0.5s1.3-0.2,1.5-0.5c0.5,0.2,1.1,0.5,1.5,0.5s1.3-0.2,1.5-0.5c0.5,0.2,1.1,0.5,1.5,0.5c1.3,0,2.6-1.1,2.6-2.6
		c0-1.5-1.1-2.6-2.6-2.6c-0.5,0-1.3,0.2-1.5,0.5c-0.5-0.2-1.1-0.5-1.5-0.5s-1.3,0.2-1.5,0.5c-0.5-0.2-1.1-0.5-1.5-0.5
		s-1.3,0.2-1.5,0.5c-0.5-0.2-1.1-0.5-1.5-0.5s-1.3,0.2-1.5,0.5c-0.5-0.2-1.1-0.5-1.5-0.5s-1.3,0.2-1.5,0.5c-0.5-0.2-1.1-0.5-1.5-0.5
		s-1.3,0.2-1.5,0.5C514.2,732.2,513.6,732,513.1,732z"/>
</g>
</svg>
