<svg xmlns="http://www.w3.org/2000/svg" viewBox="790 705 415 385">
  <rect x="790" y="705" width="415" height="385" rx="90" fill="#470020"/>
  <g fill="#ffffff">
    <path d="m843.31,802.78l-22.81,150.68-16.33-28.29c-9.75-16.89-9.75-37.71,0-54.6l39.14-67.79Z"/>
    <path d="m876.25,766.19l63.46,314.92h-13.97c-19.51,0-37.54-10.41-47.3-27.3l-47.39-82.11,45.2-205.52Z"/>
    <path d="m902.99,761.72l192.33,315.17c-6.56,2.75-13.7,4.22-21.05,4.22h-128.69l-42.59-319.4Z"/>
    <path d="m1144.03,780.84l-160.62-66.21h90.86c19.51,0,37.54,10.41,47.3,27.3l22.46,38.91Z"/>
    <path d="m926.59,748.38l254.14,202.93-59.17,102.5c-5.63,9.74-14.01,17.33-23.84,22l-171.14-327.44Z"/>
    <path d="m1195.83,925.17l-12.25,21.22-239.38-218.62,210,70.7,41.63,72.11c9.76,16.89,9.76,37.71,0,54.6Z"/>
  </g>
</svg>
