<svg width="433" height="102" viewBox="0 0 433 102" fill="none" xmlns="http://www.w3.org/2000/svg">
<path d="M367.188 59.8264C367.188 60.1491 367.126 60.4252 367.004 60.6547C366.882 60.8841 366.606 61.0682 366.161 61.222C365.702 61.3594 365.057 61.4666 364.184 61.5283C363.31 61.5901 362.13 61.6203 360.644 61.6203C359.387 61.6203 358.391 61.5901 357.64 61.5283C356.888 61.4666 356.291 61.3594 355.862 61.1905C355.432 61.0228 355.126 60.8236 354.942 60.5626C354.773 60.3017 354.62 59.9953 354.498 59.6435L349.256 46.6307C348.627 45.1595 348.014 43.8408 347.417 42.7074C346.819 41.5577 346.145 40.6071 345.408 39.8406C344.673 39.0742 343.815 38.508 342.849 38.1085C341.899 37.7264 340.78 37.5272 339.523 37.5272H335.83V59.7344C335.83 60.0256 335.738 60.3017 335.538 60.5323C335.339 60.777 335.018 60.9762 334.573 61.1299C334.129 61.2674 333.53 61.3897 332.78 61.4817C332.044 61.5737 331.078 61.6203 329.928 61.6203C328.795 61.6203 327.844 61.5737 327.078 61.4817C326.311 61.3897 325.714 61.2674 325.27 61.1299C324.825 60.9762 324.503 60.777 324.335 60.5475C324.15 60.3017 324.058 60.0256 324.058 59.7344V6.95038C324.058 5.63174 324.396 4.6812 325.071 4.09876C325.744 3.51633 326.572 3.22511 327.553 3.22511H342.604C344.121 3.22511 345.393 3.25655 346.374 3.31712C347.355 3.37886 348.26 3.45575 349.072 3.53264C351.402 3.86929 353.501 4.43658 355.372 5.2485C357.241 6.04527 358.835 7.10298 360.137 8.40647C361.441 9.70881 362.436 11.2418 363.126 13.0194C363.816 14.797 364.153 16.8355 364.153 19.1501C364.153 21.0815 363.908 22.8591 363.417 24.4526C362.912 26.0625 362.192 27.4871 361.226 28.744C360.276 30.0009 359.096 31.0889 357.685 32.0092C356.275 32.9434 354.666 33.6796 352.873 34.2621C353.746 34.6756 354.558 35.1811 355.325 35.7799C356.091 36.3775 356.811 37.1125 357.486 37.971C358.16 38.8295 358.804 39.7952 359.402 40.8983C360 41.9863 360.582 43.2281 361.149 44.6073L366.069 56.0872C366.514 57.2218 366.82 58.0488 366.959 58.5858C367.111 59.1065 367.188 59.5201 367.188 59.8264ZM158.271 43.9026C158.271 46.9674 157.704 49.6349 156.57 51.9495C155.421 54.2478 153.888 56.1641 151.941 57.7122C149.979 59.244 147.711 60.4089 145.106 61.1905C142.5 61.9721 139.711 62.3554 136.737 62.3554C134.729 62.3554 132.874 62.1876 131.143 61.8498C129.426 61.5132 127.909 61.1148 126.591 60.6395C125.272 60.1794 124.169 59.689 123.28 59.1683C122.392 58.6464 121.763 58.1874 121.364 57.8042C120.981 57.4058 120.706 56.8385 120.537 56.1023C120.368 55.3673 120.291 54.3247 120.291 52.9455C120.291 52.0101 120.323 51.2436 120.383 50.6157C120.445 49.9867 120.537 49.4812 120.675 49.0828C120.813 48.6995 120.997 48.4235 121.212 48.2557C121.441 48.0868 121.702 48.0099 122.008 48.0099C122.422 48.0099 123.02 48.2557 123.786 48.7613C124.552 49.2517 125.533 49.8038 126.728 50.4014C127.925 50.999 129.365 51.55 131.036 52.0404C132.691 52.5471 134.622 52.7917 136.814 52.7917C138.255 52.7917 139.542 52.6228 140.677 52.2862C141.825 51.9332 142.791 51.4591 143.588 50.8301C144.386 50.2022 144.983 49.4357 145.412 48.5155C145.825 47.5964 146.041 46.569 146.041 45.4356C146.041 44.1169 145.688 42.9835 144.968 42.0481C144.247 41.0975 143.313 40.2705 142.148 39.5343C140.998 38.7992 139.68 38.1085 138.208 37.4655C136.752 36.8213 135.236 36.1468 133.672 35.4269C132.109 34.707 130.591 33.894 129.135 32.9749C127.664 32.0698 126.345 30.9818 125.197 29.7097C124.032 28.4377 123.096 26.9361 122.377 25.1888C121.655 23.4567 121.304 21.3727 121.304 18.9509C121.304 16.1762 121.824 13.7241 122.852 11.6087C123.878 9.50961 125.272 7.7623 127.02 6.36794C128.782 4.97242 130.837 3.93102 133.212 3.24142C135.587 2.55065 138.116 2.21399 140.784 2.21399C142.148 2.21399 143.527 2.32116 144.906 2.5355C146.286 2.73469 147.573 3.02591 148.769 3.37887C149.964 3.74697 151.022 4.14536 151.956 4.58917C152.876 5.0493 153.489 5.4174 153.796 5.72376C154.087 6.01498 154.286 6.27591 154.393 6.4751C154.5 6.68944 154.592 6.96553 154.669 7.31732C154.746 7.65513 154.792 8.0838 154.823 8.62081C154.853 9.14151 154.868 9.78568 154.868 10.5673C154.868 11.4258 154.853 12.1609 154.808 12.7584C154.761 13.356 154.684 13.8464 154.577 14.246C154.47 14.6281 154.317 14.9193 154.133 15.0882C153.934 15.2723 153.673 15.3643 153.335 15.3643C153.014 15.3643 152.493 15.1499 151.772 14.7364C151.052 14.3217 150.163 13.8628 149.121 13.356C148.063 12.8656 146.853 12.4218 145.474 12.0234C144.094 11.6087 142.592 11.4095 140.936 11.4095C139.649 11.4095 138.53 11.5633 137.565 11.8848C136.615 12.1912 135.818 12.6361 135.174 13.1883C134.53 13.7393 134.039 14.3986 133.733 15.1802C133.411 15.9619 133.258 16.7901 133.258 17.6474C133.258 18.9358 133.611 20.0541 134.315 20.9895C135.02 21.9388 135.971 22.7822 137.151 23.5184C138.331 24.2383 139.68 24.9279 141.182 25.5721C142.669 26.2151 144.202 26.9047 145.765 27.6106C147.328 28.3305 148.861 29.1424 150.348 30.0627C151.849 30.9818 153.183 32.0698 154.363 33.343C155.528 34.615 156.478 36.1014 157.198 37.8336C157.919 39.5494 158.271 41.5728 158.271 43.9026ZM258.412 56.4087C258.412 57.2975 258.38 58.064 258.305 58.6779C258.228 59.2906 258.106 59.7961 257.967 60.1945C257.814 60.6081 257.63 60.8993 257.4 61.0682C257.17 61.2522 256.909 61.3443 256.618 61.3443H229.996C229.015 61.3443 228.187 61.053 227.514 60.4706C226.839 59.8882 226.501 58.9376 226.501 57.6201V4.83496C226.501 4.54374 226.593 4.26767 226.792 4.02304C226.992 3.7924 227.313 3.59321 227.758 3.44061C228.203 3.28684 228.816 3.17967 229.582 3.08765C230.349 2.99562 231.298 2.9502 232.433 2.9502C233.598 2.9502 234.563 2.99562 235.315 3.08765C236.05 3.17967 236.662 3.28684 237.107 3.44061C237.552 3.59321 237.874 3.7924 238.073 4.02304C238.272 4.26767 238.364 4.54374 238.364 4.83496V51.5966H256.618C256.909 51.5966 257.185 51.6735 257.4 51.8412C257.63 52.0101 257.814 52.271 257.967 52.6543C258.121 53.0224 258.228 53.5128 258.305 54.1407C258.38 54.7534 258.412 55.5047 258.412 56.4087ZM388.582 59.7344C388.582 60.0256 388.49 60.3017 388.291 60.5475C388.092 60.777 387.77 60.9762 387.325 61.1299C386.88 61.2674 386.267 61.3897 385.532 61.4817C384.781 61.5737 383.815 61.6203 382.651 61.6203C381.516 61.6203 380.567 61.5737 379.8 61.4817C379.034 61.3897 378.421 61.2674 377.976 61.1299C377.531 60.9762 377.209 60.777 377.01 60.5475C376.811 60.3017 376.719 60.0256 376.719 59.7344V4.83496C376.719 4.54374 376.811 4.26767 377.01 4.02304C377.209 3.7924 377.531 3.59321 378.006 3.44061C378.466 3.28684 379.064 3.17967 379.815 3.08765C380.567 2.99562 381.516 2.9502 382.651 2.9502C383.815 2.9502 384.781 2.99562 385.532 3.08765C386.267 3.17967 386.88 3.28684 387.325 3.44061C387.77 3.59321 388.092 3.7924 388.291 4.02304C388.49 4.26767 388.582 4.54374 388.582 4.83496V59.7344ZM433 8.06866C433 8.9726 432.97 9.72394 432.893 10.3367C432.816 10.9506 432.694 11.441 432.525 11.8091C432.357 12.1609 432.173 12.4369 431.974 12.6058C431.759 12.7899 431.514 12.8819 431.253 12.8819H412.217V28.5146H430.073C430.349 28.5146 430.595 28.5914 430.794 28.744C431.008 28.8827 431.192 29.1424 431.36 29.4954C431.529 29.8635 431.636 30.3388 431.713 30.9363C431.79 31.5339 431.835 32.2853 431.835 33.1892C431.835 34.078 431.79 34.8293 431.713 35.4269C431.636 36.0245 431.529 36.5149 431.36 36.9133C431.192 37.2966 431.008 37.5726 430.794 37.7415C430.595 37.9093 430.349 37.9862 430.073 37.9862H412.217V59.6435C412.217 59.965 412.125 60.2563 411.941 60.5009C411.772 60.7315 411.451 60.9307 410.976 61.0985C410.516 61.2674 409.903 61.3897 409.168 61.4817C408.416 61.5737 407.451 61.6203 406.286 61.6203C405.151 61.6203 404.202 61.5737 403.435 61.4817C402.669 61.3897 402.056 61.2674 401.611 61.0985C401.166 60.9459 400.845 60.7315 400.646 60.5009C400.446 60.2563 400.354 59.965 400.354 59.6435V6.95038C400.354 5.63174 400.692 4.6812 401.367 4.09876C402.04 3.51633 402.868 3.22511 403.864 3.22511H431.253C431.514 3.22511 431.759 3.30199 431.974 3.47089C432.173 3.6398 432.357 3.89957 432.525 4.28281C432.694 4.65091 432.816 5.15647 432.893 5.7855C432.97 6.41337 433 7.17986 433 8.06866ZM219.485 31.6108C219.485 36.4229 218.888 40.7295 217.692 44.5304C216.497 48.3314 214.719 51.5663 212.343 54.2024C209.983 56.8537 207.056 58.8771 203.577 60.2714C200.082 61.6658 196.051 62.3554 191.469 62.3554C186.947 62.3554 183.008 61.7578 179.651 60.5778C176.28 59.3978 173.475 57.605 171.222 55.1681C168.984 52.7463 167.299 49.6652 166.179 45.926C165.061 42.1855 164.494 37.7567 164.494 32.6371C164.494 27.9473 165.091 23.7176 166.287 19.962C167.482 16.2076 169.26 13.0194 171.636 10.3833C173.996 7.74715 176.923 5.72376 180.402 4.32941C183.897 2.91874 187.944 2.21399 192.557 2.21399C196.955 2.21399 200.833 2.79643 204.204 3.9613C207.562 5.12618 210.382 6.91893 212.635 9.35585C214.903 11.7776 216.604 14.8273 217.754 18.5211C218.903 22.2301 219.485 26.5832 219.485 31.6108ZM207.071 32.2084C207.071 29.1587 206.825 26.384 206.35 23.8853C205.876 21.3879 205.063 19.2422 203.913 17.4646C202.765 15.6858 201.232 14.3066 199.315 13.3257C197.4 12.3601 195.009 11.8696 192.143 11.8696C189.246 11.8696 186.824 12.4218 184.893 13.5098C182.947 14.5978 181.368 16.069 180.173 17.8932C178.977 19.7174 178.134 21.848 177.644 24.2849C177.154 26.737 176.908 29.3113 176.908 32.0395C176.908 35.2126 177.154 38.063 177.629 40.592C178.104 43.1209 178.916 45.2818 180.051 47.0908C181.184 48.8836 182.702 50.2477 184.617 51.1982C186.533 52.1324 188.94 52.6077 191.836 52.6077C194.733 52.6077 197.155 52.0718 199.086 50.9839C201.032 49.911 202.611 48.4398 203.806 46.5841C205.002 44.7296 205.845 42.5688 206.335 40.1016C206.825 37.6344 207.071 34.9983 207.071 32.2084ZM315.921 56.9457C316.272 58.0185 316.503 58.8771 316.595 59.5049C316.687 60.134 316.564 60.6081 316.242 60.9307C315.904 61.2371 315.323 61.4363 314.48 61.5132C313.651 61.5901 312.487 61.6203 311.03 61.6203C309.499 61.6203 308.302 61.6052 307.46 61.5586C306.602 61.5132 305.957 61.4211 305.498 61.2825C305.054 61.1451 304.747 60.961 304.563 60.7164C304.379 60.4857 304.226 60.1642 304.119 59.781L300.302 48.102H278.385L274.722 59.4595C274.599 59.8882 274.446 60.2411 274.247 60.5172C274.063 60.8073 273.742 61.0228 273.312 61.1905C272.883 61.3594 272.27 61.4666 271.472 61.5283C270.676 61.5901 269.634 61.6203 268.346 61.6203C266.967 61.6203 265.894 61.5737 265.112 61.4817C264.331 61.3897 263.795 61.1754 263.504 60.8387C263.196 60.4857 263.089 59.9953 263.181 59.3675C263.273 58.7384 263.504 57.9114 263.855 56.8537L281.757 5.27878C281.926 4.77323 282.14 4.3597 282.385 4.05333C282.616 3.73183 282.999 3.50117 283.52 3.33227C284.057 3.16453 284.777 3.05736 285.712 3.01076C286.631 2.96533 287.858 2.9502 289.389 2.9502C291.152 2.9502 292.563 2.96533 293.605 3.01076C294.662 3.05736 295.475 3.16453 296.057 3.33227C296.64 3.50117 297.053 3.74697 297.314 4.06848C297.559 4.40629 297.789 4.8501 297.957 5.4174L315.921 56.9457ZM289.252 14.2763H289.205L281.113 38.9984H297.421L289.252 14.2763ZM351.922 20.3604C351.922 18.4454 351.494 16.8204 350.62 15.518C349.746 14.1994 348.321 13.264 346.344 12.7282C345.746 12.5744 345.072 12.4672 344.305 12.3752C343.539 12.2832 342.481 12.2378 341.132 12.2378H335.83V28.6986H341.853C343.539 28.6986 344.995 28.4994 346.252 28.0859C347.524 27.6863 348.566 27.1202 349.408 26.384C350.252 25.6641 350.88 24.7753 351.294 23.763C351.708 22.7519 351.922 21.6173 351.922 20.3604Z" fill="black"/>
<path d="M137.923 84.3898C137.923 84.6789 137.908 84.9281 137.878 85.1375C137.858 85.3469 137.823 85.5163 137.773 85.646C137.733 85.7656 137.678 85.8503 137.609 85.9002C137.549 85.95 137.474 85.9749 137.384 85.9749C137.255 85.9749 137.045 85.8852 136.756 85.7058C136.467 85.5263 136.083 85.3319 135.605 85.1226C135.126 84.9132 134.553 84.7188 133.885 84.5393C133.227 84.3599 132.459 84.2702 131.582 84.2702C130.645 84.2702 129.797 84.4347 129.04 84.7637C128.282 85.0827 127.634 85.5413 127.096 86.1394C126.557 86.7276 126.144 87.4405 125.855 88.2779C125.565 89.1054 125.421 90.0226 125.421 91.0295C125.421 92.1361 125.565 93.1131 125.855 93.9605C126.154 94.798 126.567 95.5008 127.096 96.0691C127.624 96.6373 128.257 97.066 128.995 97.3551C129.743 97.6443 130.565 97.7888 131.462 97.7888C131.901 97.7888 132.335 97.739 132.763 97.6393C133.192 97.5396 133.591 97.39 133.96 97.1906V92.7044H130.296C130.116 92.7044 129.977 92.5947 129.877 92.3754C129.778 92.1461 129.728 91.7622 129.728 91.2239C129.728 90.9447 129.738 90.7105 129.758 90.521C129.788 90.3316 129.827 90.1821 129.877 90.0724C129.927 89.9528 129.987 89.868 130.057 89.8182C130.126 89.7584 130.206 89.7285 130.296 89.7285H136.831C136.99 89.7285 137.13 89.7584 137.25 89.8182C137.379 89.868 137.489 89.9478 137.579 90.0575C137.678 90.1671 137.753 90.3017 137.803 90.4612C137.853 90.6108 137.878 90.7852 137.878 90.9846V98.6861C137.878 98.9852 137.823 99.2493 137.713 99.4786C137.614 99.698 137.399 99.8724 137.07 100.002C136.751 100.132 136.352 100.266 135.874 100.406C135.395 100.545 134.897 100.665 134.378 100.765C133.87 100.864 133.352 100.939 132.823 100.989C132.305 101.039 131.781 101.064 131.253 101.064C129.708 101.064 128.322 100.844 127.096 100.406C125.879 99.9572 124.848 99.3141 124 98.4767C123.153 97.6293 122.505 96.6024 122.056 95.3961C121.608 94.1799 121.383 92.8041 121.383 91.2688C121.383 89.6836 121.622 88.2629 122.101 87.0068C122.58 85.7407 123.257 84.6689 124.135 83.7916C125.012 82.9043 126.069 82.2264 127.305 81.7578C128.551 81.2893 129.937 81.055 131.462 81.055C132.3 81.055 133.062 81.1148 133.75 81.2344C134.438 81.3441 135.036 81.4837 135.545 81.6532C136.063 81.8127 136.492 81.9871 136.831 82.1766C137.17 82.366 137.404 82.5305 137.534 82.6701C137.673 82.8096 137.773 83.009 137.833 83.2682C137.893 83.5175 137.923 83.8913 137.923 84.3898Z" fill="#FF8E00"/>
<path d="M156.286 100.226C156.286 100.336 156.267 100.431 156.227 100.51C156.187 100.58 156.092 100.64 155.943 100.69C155.793 100.74 155.574 100.775 155.285 100.795C154.995 100.815 154.602 100.825 154.103 100.825C153.684 100.825 153.35 100.815 153.101 100.795C152.852 100.775 152.653 100.74 152.503 100.69C152.363 100.63 152.264 100.56 152.204 100.481C152.144 100.391 152.094 100.286 152.054 100.167L150.32 95.8448C150.11 95.3563 149.906 94.9226 149.707 94.5437C149.507 94.1649 149.283 93.8509 149.034 93.6016C148.794 93.3424 148.515 93.148 148.196 93.0184C147.877 92.8888 147.508 92.824 147.09 92.824H145.863V100.196C145.863 100.296 145.828 100.386 145.759 100.466C145.699 100.545 145.594 100.61 145.445 100.66C145.295 100.71 145.096 100.75 144.846 100.78C144.597 100.81 144.278 100.825 143.889 100.825C143.511 100.825 143.192 100.81 142.932 100.78C142.683 100.75 142.484 100.71 142.334 100.66C142.185 100.61 142.08 100.545 142.02 100.466C141.96 100.386 141.93 100.296 141.93 100.196V82.6252C141.93 82.1865 142.04 81.8725 142.259 81.6831C142.489 81.4837 142.768 81.384 143.097 81.384H148.106C148.615 81.384 149.034 81.394 149.363 81.4139C149.692 81.4338 149.991 81.4588 150.26 81.4887C151.038 81.5983 151.735 81.7878 152.353 82.0569C152.982 82.3261 153.51 82.68 153.939 83.1187C154.377 83.5474 154.711 84.0608 154.941 84.659C155.17 85.2472 155.285 85.9251 155.285 86.6927C155.285 87.3408 155.2 87.934 155.03 88.4723C154.871 89.0007 154.632 89.4742 154.312 89.893C153.993 90.3117 153.6 90.6756 153.131 90.9846C152.663 91.2937 152.129 91.5429 151.531 91.7323C151.82 91.8719 152.089 92.0414 152.339 92.2408C152.598 92.4402 152.837 92.6844 153.056 92.9735C153.286 93.2527 153.5 93.5767 153.699 93.9456C153.899 94.3045 154.093 94.7132 154.283 95.1718L155.913 98.9852C156.062 99.364 156.162 99.6431 156.212 99.8226C156.262 99.9921 156.286 100.127 156.286 100.226ZM151.217 87.0965C151.217 86.4585 151.072 85.9201 150.783 85.4815C150.494 85.0428 150.021 84.7337 149.363 84.5543C149.163 84.5044 148.934 84.4646 148.675 84.4347C148.426 84.4047 148.077 84.3898 147.628 84.3898H145.863V89.878H147.867C148.426 89.878 148.914 89.8132 149.333 89.6836C149.751 89.544 150.1 89.3546 150.38 89.1153C150.659 88.8661 150.868 88.572 151.008 88.233C151.147 87.8941 151.217 87.5152 151.217 87.0965Z" fill="#FF8E00"/>
<path d="M176.295 90.8351C176.295 92.4402 176.096 93.8758 175.697 95.1419C175.298 96.408 174.705 97.4847 173.918 98.372C173.13 99.2493 172.153 99.9223 170.986 100.391C169.83 100.849 168.489 101.079 166.964 101.079C165.458 101.079 164.142 100.884 163.016 100.496C161.899 100.097 160.967 99.4936 160.219 98.6861C159.472 97.8785 158.908 96.8517 158.53 95.6055C158.161 94.3593 157.976 92.8838 157.976 91.179C157.976 89.6138 158.176 88.2081 158.574 86.9619C158.973 85.7058 159.566 84.639 160.354 83.7617C161.142 82.8844 162.114 82.2115 163.27 81.7429C164.437 81.2743 165.787 81.04 167.323 81.04C168.788 81.04 170.079 81.2344 171.196 81.6233C172.322 82.0121 173.26 82.6102 174.007 83.4178C174.765 84.2253 175.333 85.2472 175.712 86.4834C176.101 87.7096 176.295 89.1602 176.295 90.8351ZM172.168 91.0444C172.168 90.0276 172.088 89.1054 171.929 88.2779C171.769 87.4405 171.495 86.7276 171.106 86.1394C170.727 85.5413 170.219 85.0827 169.581 84.7637C168.943 84.4347 168.145 84.2702 167.188 84.2702C166.221 84.2702 165.414 84.4546 164.766 84.8235C164.118 85.1824 163.594 85.6659 163.195 86.274C162.797 86.8822 162.512 87.595 162.343 88.4125C162.183 89.22 162.104 90.0774 162.104 90.9846C162.104 92.0414 162.183 92.9935 162.343 93.8409C162.502 94.6783 162.772 95.3961 163.15 95.9943C163.529 96.5925 164.038 97.0511 164.676 97.3701C165.314 97.6791 166.116 97.8337 167.083 97.8337C168.05 97.8337 168.858 97.6542 169.506 97.2953C170.154 96.9364 170.677 96.4479 171.076 95.8298C171.475 95.2117 171.754 94.4939 171.914 93.6764C172.083 92.8489 172.168 91.9716 172.168 91.0444Z" fill="#FF8E00"/>
<path d="M195.407 93.5268C195.407 94.7132 195.232 95.775 194.883 96.7121C194.534 97.6492 194.021 98.4418 193.343 99.0898C192.665 99.7379 191.828 100.231 190.831 100.57C189.834 100.909 188.687 101.079 187.391 101.079C186.175 101.079 185.083 100.929 184.116 100.63C183.149 100.321 182.332 99.8575 181.664 99.2394C180.996 98.6213 180.482 97.8536 180.124 96.9364C179.775 96.0093 179.6 94.9276 179.6 93.6913V81.9223C179.6 81.8226 179.63 81.7329 179.69 81.6532C179.75 81.5734 179.854 81.5086 180.004 81.4588C180.163 81.4089 180.368 81.369 180.617 81.3391C180.866 81.3092 181.185 81.2943 181.574 81.2943C181.953 81.2943 182.267 81.3092 182.516 81.3391C182.765 81.369 182.965 81.4089 183.114 81.4588C183.264 81.5086 183.369 81.5734 183.428 81.6532C183.498 81.7329 183.533 81.8226 183.533 81.9223V93.3474C183.533 94.115 183.628 94.783 183.817 95.3513C184.007 95.9096 184.276 96.3731 184.625 96.742C184.984 97.1109 185.407 97.39 185.896 97.5795C186.394 97.7589 186.948 97.8486 187.556 97.8486C188.174 97.8486 188.727 97.7539 189.216 97.5645C189.704 97.3751 190.118 97.1009 190.457 96.742C190.796 96.3731 191.055 95.9245 191.235 95.3961C191.424 94.8578 191.519 94.2496 191.519 93.5717V81.9223C191.519 81.8226 191.549 81.7329 191.608 81.6532C191.668 81.5734 191.773 81.5086 191.922 81.4588C192.072 81.4089 192.271 81.369 192.521 81.3391C192.78 81.3092 193.099 81.2943 193.478 81.2943C193.857 81.2943 194.166 81.3092 194.405 81.3391C194.654 81.369 194.854 81.4089 195.003 81.4588C195.153 81.5086 195.257 81.5734 195.317 81.6532C195.377 81.7329 195.407 81.8226 195.407 81.9223V93.5268Z" fill="#FF8E00"/>
<path d="M212.873 87.261C212.873 88.3477 212.704 89.3097 212.365 90.1472C212.026 90.9846 211.532 91.6925 210.884 92.2707C210.236 92.839 209.439 93.2726 208.492 93.5717C207.555 93.8708 206.448 94.0203 205.172 94.0203H203.557V100.196C203.557 100.296 203.522 100.386 203.452 100.466C203.392 100.545 203.288 100.61 203.138 100.66C202.989 100.71 202.789 100.75 202.54 100.78C202.291 100.81 201.972 100.825 201.583 100.825C201.204 100.825 200.885 100.81 200.626 100.78C200.377 100.75 200.177 100.71 200.028 100.66C199.878 100.61 199.773 100.545 199.714 100.466C199.654 100.386 199.624 100.296 199.624 100.196V82.7897C199.624 82.3211 199.744 81.9722 199.983 81.7429C200.232 81.5036 200.556 81.384 200.955 81.384H205.516C205.974 81.384 206.408 81.4039 206.817 81.4438C207.236 81.4737 207.734 81.5485 208.312 81.6681C208.891 81.7778 209.474 81.9871 210.062 82.2962C210.66 82.6053 211.169 82.999 211.587 83.4776C212.006 83.9462 212.325 84.4995 212.544 85.1375C212.764 85.7656 212.873 86.4734 212.873 87.261ZM208.761 87.5451C208.761 86.8672 208.641 86.3089 208.402 85.8703C208.163 85.4316 207.869 85.1076 207.52 84.8982C207.171 84.6889 206.802 84.5593 206.413 84.5094C206.034 84.4496 205.641 84.4197 205.232 84.4197H203.557V90.9846H205.321C205.95 90.9846 206.473 90.8999 206.892 90.7304C207.32 90.5609 207.669 90.3266 207.938 90.0276C208.208 89.7185 208.412 89.3546 208.552 88.9359C208.691 88.5072 208.761 88.0436 208.761 87.5451Z" fill="#FF8E00"/>
<path d="M54.1925 0.107197C53.1116 0.040199 52.0173 0 50.9185 0C29.7158 0 11.5414 12.9619 3.88124 31.3909L60.9683 43.7722L54.1925 0.107197Z" fill="#FFBE00"/>
<path d="M68.5169 56.4215L75.2614 47.7921L60.9684 43.7722L3.88139 31.3909C3.87246 31.4133 3.86353 31.4401 3.85013 31.4669L56.0552 72.3582L68.5169 56.4215Z" fill="#FFB000"/>
<path d="M3.85017 31.4669C1.37123 37.461 0 44.0268 0 50.9187C0 73.4346 14.6146 92.5336 34.8749 99.2557L56.0553 72.3582L3.85017 31.4669Z" fill="#FF9700"/>
<path d="M75.2615 47.7923L101.721 47.5064C100.038 22.0605 79.6611 1.72425 54.1928 0.107361L60.9686 43.7724L75.2615 47.7923Z" fill="#FFDE00"/>
<path d="M75.2613 47.7921L68.5168 56.4215L94.6819 76.9632C99.2289 69.3433 101.842 60.437 101.842 50.9187C101.842 49.7708 101.802 48.6363 101.726 47.5063L75.2658 47.7921H75.2613Z" fill="#FF9700"/>
<path d="M59.508 101.114C59.6464 101.092 59.7894 101.069 59.9278 101.042L66.4981 66.4401L59.508 101.114Z" fill="#FFDE00"/>
<path d="M66.498 66.4357L68.5169 56.4172L56.0552 72.3539L34.8748 99.2515C39.9175 100.926 45.3131 101.833 50.9186 101.833C53.8442 101.833 57.7301 101.413 60.5217 100.94L66.498 66.4357Z" fill="#FF9200"/>
<path d="M68.5169 56.4217L66.4981 66.4402L59.9278 101.043C74.6987 98.4073 87.2631 89.3983 94.682 76.9634L68.5169 56.4217Z" fill="#FF8E00"/>
</svg>
