<svg width="518" height="188" viewBox="0 0 518 188" fill="none" xmlns="http://www.w3.org/2000/svg">
<path d="M305.965 165.948L0 188V0H518L353.283 146.02C340.128 157.681 323.499 164.685 305.965 165.948Z" fill="white"/>
<path d="M222.16 109.235V114.149C222.16 114.294 222.063 114.359 221.919 114.359H221.194C221.05 114.359 220.985 114.294 220.985 114.149V109.235C220.985 106.738 220.372 106.594 218.777 106.594H216.279V114.149C216.279 114.294 216.216 114.359 216.087 114.359H215.328C215.185 114.359 215.12 114.294 215.12 114.149V105.997C215.12 105.836 215.185 105.804 215.328 105.787C216.585 105.561 217.826 105.561 218.584 105.561C221.243 105.561 222.16 105.899 222.16 109.235Z" fill="#3C0B0F"/>
<path d="M231.714 109.702V110.17C231.714 110.444 231.665 110.572 231.214 110.572H225.945C225.992 112.811 226.396 113.408 228.28 113.408H230.812C230.938 113.408 231.019 113.472 231.019 113.618V114.118C231.019 114.231 230.956 114.311 230.828 114.326C230.069 114.406 229.102 114.44 228.28 114.44C225.365 114.44 224.768 113.553 224.768 109.992C224.768 106.431 225.365 105.561 228.28 105.561C231.036 105.561 231.682 106.383 231.714 109.702ZM225.945 109.526H230.536C230.504 107.141 230.133 106.593 228.28 106.593C226.331 106.593 225.977 107.173 225.945 109.526Z" fill="#3C0B0F"/>
<path d="M235.481 103.209C235.642 103.161 235.722 103.225 235.722 103.387V105.642H237.51C237.64 105.642 237.72 105.723 237.72 105.852V106.415C237.72 106.545 237.64 106.609 237.51 106.609H235.722V112.506C235.722 113.23 235.915 113.408 236.769 113.408H237.623C237.784 113.408 237.849 113.457 237.849 113.601V114.149C237.849 114.262 237.784 114.327 237.656 114.359C237.383 114.423 236.898 114.44 236.786 114.44C235.674 114.44 234.546 114.359 234.546 112.747V106.609H233.644C233.498 106.609 233.434 106.545 233.434 106.415V105.852C233.434 105.723 233.498 105.642 233.644 105.642H234.546V103.596C234.546 103.482 234.61 103.418 234.723 103.387L235.481 103.209Z" fill="#3C0B0F"/>
<path d="M240.861 102.306C240.99 102.306 241.07 102.388 241.07 102.517V105.658C241.634 105.594 242.375 105.561 243.294 105.561C246.372 105.561 246.936 106.431 246.936 109.992C246.936 113.553 246.387 114.44 243.39 114.44C242.278 114.44 241.602 114.406 240.119 114.182C239.959 114.165 239.894 114.101 239.894 113.94V102.517C239.894 102.388 239.975 102.306 240.104 102.306H240.861ZM241.07 106.593V113.248C241.909 113.36 242.697 113.408 243.39 113.408C245.517 113.408 245.775 112.716 245.775 109.977C245.775 107.254 245.501 106.593 243.294 106.593H241.07Z" fill="#3C0B0F"/>
<path d="M256.263 109.702V110.17C256.263 110.444 256.214 110.572 255.763 110.572H250.494C250.543 112.811 250.946 113.408 252.83 113.408H255.361C255.489 113.408 255.569 113.472 255.569 113.618V114.118C255.569 114.231 255.506 114.311 255.375 114.326C254.618 114.406 253.652 114.44 252.83 114.44C249.914 114.44 249.318 113.553 249.318 109.992C249.318 106.431 249.914 105.561 252.83 105.561C255.585 105.561 256.231 106.383 256.263 109.702ZM250.494 109.526H255.087C255.053 107.141 254.684 106.593 252.83 106.593C250.88 106.593 250.526 107.173 250.494 109.526Z" fill="#3C0B0F"/>
<path d="M259.724 102.306C259.853 102.306 259.916 102.387 259.916 102.516V105.642C260.738 105.561 261.658 105.561 262.221 105.561C264.879 105.561 265.798 105.899 265.798 109.235V114.149C265.798 114.294 265.718 114.359 265.589 114.359H264.831C264.686 114.359 264.621 114.294 264.621 114.149V109.235C264.621 106.738 264.009 106.576 262.416 106.576H259.916V114.149C259.916 114.294 259.853 114.359 259.724 114.359H258.967C258.821 114.359 258.758 114.294 258.758 114.149V102.516C258.758 102.387 258.821 102.306 258.967 102.306L259.724 102.306Z" fill="#3C0B0F"/>
<path d="M275.352 109.702V110.17C275.352 110.444 275.303 110.572 274.85 110.572H269.582C269.63 112.811 270.033 113.408 271.918 113.408H274.448C274.576 113.408 274.657 113.472 274.657 113.618V114.118C274.657 114.231 274.593 114.311 274.464 114.326C273.706 114.406 272.74 114.44 271.918 114.44C269.003 114.44 268.406 113.553 268.406 109.992C268.406 106.431 269.003 105.561 271.918 105.561C274.674 105.561 275.319 106.383 275.352 109.702ZM269.582 109.526H274.174C274.142 107.141 273.771 106.593 271.918 106.593C269.969 106.593 269.615 107.173 269.582 109.526Z" fill="#3C0B0F"/>
<path d="M284.5 109.702V110.17C284.5 110.444 284.453 110.572 284.001 110.572H278.732C278.78 112.811 279.183 113.408 281.068 113.408H283.597C283.726 113.408 283.807 113.472 283.807 113.618V114.118C283.807 114.231 283.743 114.311 283.613 114.326C282.856 114.406 281.89 114.44 281.068 114.44C278.151 114.44 277.556 113.553 277.556 109.992C277.556 106.431 278.151 105.561 281.068 105.561C283.824 105.561 284.468 106.383 284.5 109.702ZM278.732 109.526H283.324C283.292 107.141 282.921 106.593 281.068 106.593C279.119 106.593 278.765 107.173 278.732 109.526Z" fill="#3C0B0F"/>
<path d="M290.975 105.707C291.104 105.754 291.168 105.803 291.168 105.932V106.4C291.168 106.544 291.089 106.61 290.96 106.593H289.558C288.607 106.593 288.14 106.737 288.14 107.51V114.149C288.14 114.295 288.075 114.359 287.931 114.359H287.172C287.043 114.359 286.965 114.295 286.965 114.149V107.269C286.965 105.578 288.59 105.561 289.299 105.561C289.686 105.561 290.702 105.609 290.975 105.707Z" fill="#3C0B0F"/>
<path d="M148.134 94.6521C148.134 95.8915 147.429 96.5962 146.104 96.5962C144.779 96.5962 144.046 95.8915 144.046 94.6521C144.046 93.4114 144.779 92.7067 146.104 92.7067C147.429 92.7066 148.134 93.4113 148.134 94.6521ZM147.373 99.1059C147.655 99.1059 147.795 99.2476 147.795 99.5285V114.274C147.795 114.556 147.655 114.696 147.373 114.696H144.807C144.525 114.696 144.385 114.556 144.385 114.274V99.5285C144.385 99.2476 144.525 99.1059 144.807 99.1059H147.373Z" fill="#E5231B"/>
<path d="M165.5 105.647V114.274C165.5 114.556 165.332 114.697 165.05 114.697H162.511C162.231 114.697 162.089 114.556 162.089 114.274V106.267C162.089 102.095 161.441 101.925 158.791 101.925H155.548V114.274C155.548 114.556 155.407 114.697 155.125 114.697H152.532C152.25 114.697 152.137 114.556 152.137 114.274V99.8675C152.137 99.5003 152.278 99.4733 152.532 99.4166C154.618 98.9927 157.126 98.9657 158.847 98.9657C164.063 98.9657 165.5 99.7554 165.5 105.647Z" fill="#E5231B"/>
<path d="M178.045 93.2419C178.327 93.2986 178.467 93.4403 178.467 93.7495V95.5249C178.467 95.8071 178.327 95.9488 178.016 95.9488H176.156C174.775 95.9488 174.154 96.0609 174.154 97.2746V99.1337H177.677C177.989 99.1337 178.101 99.2753 178.045 99.5859L177.707 101.418C177.649 101.7 177.509 101.812 177.228 101.812H174.154V114.273C174.154 114.557 174.013 114.697 173.731 114.697H171.166C170.884 114.697 170.743 114.557 170.743 114.273V101.812H168.825C168.516 101.812 168.374 101.672 168.374 101.39V99.5575C168.374 99.2753 168.516 99.1336 168.825 99.1336H170.743V96.5968C170.743 93.2419 173.224 92.9881 175.282 92.9881C176.129 92.9881 177.199 93.1015 178.045 93.2419Z" fill="#E5231B"/>
<path d="M189.067 99.2748C189.35 99.3599 189.518 99.4732 189.518 99.7837V101.502C189.518 101.812 189.35 101.953 189.039 101.925H186.474C184.781 101.925 184.275 102.207 184.275 103.448V114.274C184.275 114.556 184.133 114.697 183.852 114.697H181.286C181.004 114.697 180.863 114.556 180.863 114.274V102.574C180.863 99.2194 183.542 98.9657 185.627 98.9657C186.361 98.9657 188.306 99.0506 189.067 99.2748Z" fill="#E5231B"/>
<path d="M204.093 103.588V113.399C204.093 113.766 204.036 114.049 203.53 114.219C202.062 114.641 199.582 114.838 197.186 114.838C193.238 114.838 191.236 114.219 191.236 110.129C191.236 106.549 193.125 105.647 196.593 105.647H200.681V104.181C200.681 102.603 199.751 101.926 197.495 101.926H192.871C192.534 101.926 192.449 101.84 192.449 101.502V99.7837C192.449 99.4449 192.561 99.3882 192.844 99.3315C194.536 99.021 196.057 98.9656 197.495 98.9656C202.458 98.9657 204.093 100.544 204.093 103.588ZM196.791 108.1C195.296 108.1 194.62 108.58 194.62 109.989C194.62 111.596 195.381 111.991 197.467 111.991C198.172 111.991 199.723 111.934 200.681 111.681V108.1H196.791Z" fill="#E5231B"/>
<path d="M165.67 70.9155C165.98 70.9155 166.066 71.0006 166.008 71.3381L163.556 83.6317C163.02 86.309 162.401 86.6478 159.975 86.6478C157.156 86.6478 156.902 86.309 156.282 83.6317L154.676 76.5264L153.068 83.6317C152.476 86.309 152.222 86.6478 149.375 86.6478C146.95 86.6478 146.358 86.309 145.793 83.6317L143.342 71.3381C143.313 71.0005 143.397 70.9155 143.679 70.9155H146.47C146.697 70.9155 146.753 71.0006 146.809 71.3381L148.953 82.869C149.121 83.6317 149.262 83.6872 149.572 83.6872C149.938 83.6872 149.996 83.6317 150.193 82.869L152.871 71.7903C152.927 71.4798 153.068 71.3664 153.265 71.3664H156.085C156.311 71.3664 156.423 71.4798 156.508 71.7903L159.186 82.869C159.355 83.6317 159.412 83.6872 159.779 83.6872C160.116 83.6872 160.258 83.6317 160.398 82.869L162.541 71.3381C162.598 71.0005 162.681 70.9155 162.879 70.9155H165.67Z" fill="#E5231B"/>
<path d="M182.161 78.4152V79.2616C182.161 79.7976 181.992 80.0218 181.202 80.0218H172.265C172.35 83.0108 173.026 83.6885 175.76 83.6885H180.581C180.864 83.6885 181.004 83.8289 181.004 84.1097V85.8594C181.004 86.1686 180.864 86.2806 180.61 86.3373C179.116 86.5641 177.367 86.6479 175.563 86.6479C170.066 86.6479 168.826 85.0683 168.826 78.7256C168.826 72.3533 170.066 70.7752 175.563 70.7752C180.863 70.7752 182.104 72.298 182.161 78.4152ZM172.265 77.57H178.721C178.693 74.5242 178.072 73.7345 175.563 73.7345C172.941 73.7345 172.292 74.5242 172.265 77.57Z" fill="#E5231B"/>
<path d="M195.776 71.0849C196.058 71.1416 196.199 71.2821 196.199 71.5358V73.2004C196.199 73.4813 196.058 73.6217 195.749 73.6217H190.561C189.377 73.6217 188.701 73.9889 188.701 74.8637V75.2013C188.701 75.8776 189.066 76.4136 190.25 76.8646L193.944 78.2186C196.426 79.1488 196.82 80.5866 196.82 82.3337V82.7008C196.82 85.9153 194.676 86.6484 190.983 86.6484C188.53 86.6484 186.416 86.4784 185.485 86.3946C185.147 86.3663 185.062 86.2259 185.062 85.9708V84.2237C185.062 83.9132 185.175 83.7715 185.513 83.7715H190.983C192.872 83.7715 193.465 83.5461 193.465 82.5604V82.277C193.465 81.6005 193.126 81.1509 191.857 80.6704L188.136 79.2609C185.937 78.4724 185.316 76.7808 185.316 75.1175V74.5519C185.316 71.4804 187.854 70.7757 191.378 70.7757C192.59 70.7757 194.141 70.831 195.776 71.0849Z" fill="#E5231B"/>
<path d="M204.233 66.6021C204.543 66.5183 204.713 66.6871 204.713 66.9976V70.9439H207.503C207.785 70.9439 207.954 71.0843 207.954 71.3664V73.1431C207.954 73.4536 207.785 73.5941 207.503 73.5941H204.713V82.1926C204.713 83.4333 205.079 83.6871 206.46 83.6871H207.7C208.039 83.6871 208.18 83.7992 208.18 84.0813V85.943C208.18 86.2522 208.039 86.3939 207.757 86.4506C206.967 86.5923 206.178 86.6478 205.755 86.6478C203.556 86.6478 201.273 86.5924 201.273 83.2078V73.5941H199.666C199.383 73.5941 199.214 73.4536 199.214 73.1431V71.3664C199.214 71.0843 199.383 70.9439 199.666 70.9439H201.273V67.7023C201.273 67.4202 201.413 67.3068 201.667 67.2514L204.233 66.6021Z" fill="#E5231B"/>
<path d="M214.296 64.9391C214.578 64.9391 214.719 65.0795 214.719 65.3617V86.0838C214.719 86.3659 214.578 86.5064 214.296 86.5064H211.731C211.449 86.5064 211.309 86.3659 211.309 86.0838V65.3617C211.309 65.0795 211.449 64.9391 211.731 64.9391H214.296Z" fill="#E5231B"/>
<path d="M231.043 75.3991V85.21C231.043 85.5759 230.986 85.8593 230.48 86.0281C229.012 86.4507 226.532 86.6478 224.136 86.6478C220.188 86.6478 218.186 86.0281 218.186 81.9388C218.186 78.3584 220.075 77.4566 223.543 77.4566H227.631V75.9904C227.631 74.4121 226.701 73.7357 224.446 73.7357H219.821C219.484 73.7357 219.399 73.6507 219.399 73.3119V71.5932C219.399 71.2543 219.512 71.1976 219.793 71.1409C221.486 70.8304 223.007 70.775 224.446 70.775C229.408 70.775 231.043 72.3533 231.043 75.3991ZM223.74 79.9096C222.246 79.9096 221.569 80.3889 221.569 81.7984C221.569 83.405 222.331 83.8005 224.417 83.8005C225.123 83.8005 226.673 83.7438 227.631 83.49V79.9096H223.74Z" fill="#E5231B"/>
<path d="M248.605 77.4566V86.0835C248.605 86.3656 248.436 86.5074 248.154 86.5074H245.616C245.335 86.5074 245.194 86.3656 245.194 86.0835V78.0763C245.194 73.9045 244.546 73.7345 241.895 73.7345H238.653V86.0835C238.653 86.3656 238.512 86.5074 238.23 86.5074H235.637C235.354 86.5074 235.242 86.3656 235.242 86.0835V71.6769C235.242 71.3097 235.383 71.2827 235.637 71.226C237.722 70.8034 240.232 70.7751 241.952 70.7751C247.167 70.7751 248.605 71.5648 248.605 77.4566Z" fill="#E5231B"/>
<path d="M265.406 64.9666C265.716 64.9666 265.83 65.0801 265.83 65.3906V85.5484C265.83 85.9426 265.661 86.083 265.322 86.1411C262.926 86.5353 261.318 86.6473 259.289 86.6473C253.594 86.6473 252.353 85.0408 252.353 78.7252C252.353 72.4663 253.594 70.7747 258.809 70.7747C260.275 70.7747 261.488 70.8313 262.418 70.9435V65.3906C262.418 65.0801 262.56 64.9667 262.842 64.9667L265.406 64.9666ZM259.345 73.7353C256.187 73.7353 255.765 74.6655 255.765 78.7251C255.765 82.5593 256.074 83.6879 259.26 83.6879C260.135 83.6879 261.431 83.6028 262.418 83.4612V73.7353H259.345Z" fill="#E5231B"/>
<path d="M131.114 50.689C130.177 50.9441 129.433 51.6528 129.131 52.5765L125.221 64.5853H125.222L136.395 62.6154C137.409 62.4364 138.25 61.729 138.602 60.7628L143.485 47.3226L131.114 50.689Z" fill="url(#paint0_linear_2006_585)"/>
<path d="M80.1771 57.8923L66.7252 122.383C66.4624 123.645 67.7456 124.671 68.9206 124.135L81.3688 120.552C81.5002 120.504 82.0361 119.592 82.0684 119.456L95.4726 61.3813L83.474 56.184C83.1609 56.0488 82.8375 55.9868 82.5219 55.9856C81.4294 55.9855 80.4168 56.7418 80.1771 57.8923Z" fill="url(#paint1_linear_2006_585)"/>
<path d="M111.486 66.996C110.398 67.1879 109.514 67.9855 109.214 69.0483L96.0472 115.537C95.7947 116.428 96.6128 117.254 97.5056 117.007L107.06 114.373C108.392 114.006 109.451 112.995 109.879 111.68L125.221 64.579L111.486 66.996Z" fill="url(#paint2_linear_2006_585)"/>
<path d="M80.2222 57.7236C80.4347 57.1245 81.0055 56.6941 81.678 56.6941C82.4665 56.6941 83.0269 57.2392 83.1893 58.0418L83.2047 58.1294C83.2099 58.1642 83.2177 58.1977 83.2202 58.2337C83.2293 58.2725 83.237 58.311 83.2434 58.351L83.4611 59.593L93.1497 114.93C93.4421 116.597 95.1002 117.653 96.7339 117.215L107.489 114.332V114.331C108.597 114.02 109.286 113.525 109.879 111.68C109.694 112.21 109.046 112.978 108.44 112.978C107.677 112.978 107.309 112.633 107.06 111.637L106.828 110.563L98.2129 61.4199C98.0197 60.3132 97.199 59.4204 96.1129 59.133L82.9084 55.6455C82.8607 55.63 82.8117 55.6171 82.764 55.6081C82.6004 55.5785 82.4458 55.5643 82.3015 55.5643C81.0893 55.563 80.5224 56.5654 80.2222 57.7236Z" fill="url(#paint3_linear_2006_585)"/>
<path d="M65.5451 122.33C65.7898 123.72 66.9867 124.685 68.3254 124.71H68.4297C68.6591 124.705 68.8922 124.674 69.1254 124.611L79.9014 121.722C81.0596 121.414 81.6329 121.061 82.0684 119.456C81.888 119.984 81.3933 120.367 80.8045 120.367C80.0637 120.367 79.6154 119.818 79.4621 119.024L79.2314 117.928L67.832 53.2697C67.6362 52.1668 66.8219 51.2766 65.7396 50.9866L52.2903 47.3845L65.5451 122.33Z" fill="url(#paint4_linear_2006_585)"/>
<path d="M93.1496 114.93C93.4421 116.597 95.1002 117.653 96.7339 117.215L107.489 114.332V114.331C108.597 114.02 109.286 113.525 109.879 111.68C109.694 112.21 109.045 112.978 108.44 112.978C107.677 112.978 107.309 112.633 107.06 111.637L106.828 110.563L105.215 101.362C103.37 91.0859 93.4035 89.3492 93.4035 89.3492L88.4343 87.9925L93.1496 114.93Z" fill="url(#paint5_linear_2006_585)"/>
<path d="M59.6379 88.9343L65.545 122.33C65.7898 123.72 66.9867 124.685 68.3254 124.71H68.4297C68.659 124.705 68.8922 124.674 69.1254 124.611L79.9014 121.722C80.494 121.565 80.9334 121.395 81.28 121.052C81.557 120.778 81.3173 120.324 80.9282 120.36C80.8883 120.364 80.8458 120.367 80.8045 120.367C80.0637 120.367 79.6154 119.817 79.4621 119.024L79.2314 117.928L73.2225 83.8427L67.0589 82.1626C66.523 82.0171 65.9909 81.9475 65.4729 81.9475C61.9158 81.9475 58.9757 85.1852 59.6379 88.9343Z" fill="url(#paint6_linear_2006_585)"/>
<defs>
<linearGradient id="paint0_linear_2006_585" x1="133.175" y1="54.1418" x2="126.585" y2="44.0036" gradientUnits="userSpaceOnUse">
<stop stop-color="#E5231B"/>
<stop offset="1" stop-color="#9A1915"/>
</linearGradient>
<linearGradient id="paint1_linear_2006_585" x1="71.6386" y1="134.209" x2="85.8321" y2="68.8177" gradientUnits="userSpaceOnUse">
<stop stop-color="#3C0B0F"/>
<stop offset="0.3041" stop-color="#5A0F11"/>
<stop offset="1" stop-color="#9A1915"/>
</linearGradient>
<linearGradient id="paint2_linear_2006_585" x1="119.428" y1="64.7279" x2="96.3641" y2="124.543" gradientUnits="userSpaceOnUse">
<stop stop-color="#E5231B"/>
<stop offset="0.3428" stop-color="#E5231B"/>
<stop offset="0.4848" stop-color="#BD1E18"/>
<stop offset="0.6222" stop-color="#9A1915"/>
<stop offset="1" stop-color="#3C0B0F"/>
</linearGradient>
<linearGradient id="paint3_linear_2006_585" x1="88.9547" y1="49.142" x2="101.12" y2="120.109" gradientUnits="userSpaceOnUse">
<stop stop-color="#E5231B"/>
<stop offset="1" stop-color="#9A1915"/>
</linearGradient>
<linearGradient id="paint4_linear_2006_585" x1="74.35" y1="123.713" x2="59.6496" y2="47.4231" gradientUnits="userSpaceOnUse">
<stop stop-color="#9A1915"/>
<stop offset="0.7473" stop-color="#D12019"/>
<stop offset="1" stop-color="#E5231B"/>
</linearGradient>
<linearGradient id="paint5_linear_2006_585" x1="101.794" y1="85.9488" x2="94.1899" y2="125.995" gradientUnits="userSpaceOnUse">
<stop stop-color="#9A1915"/>
<stop offset="0.7473" stop-color="#D12019"/>
<stop offset="1" stop-color="#E5231B"/>
</linearGradient>
<linearGradient id="paint6_linear_2006_585" x1="74.4716" y1="80.4474" x2="65.8541" y2="131.392" gradientUnits="userSpaceOnUse">
<stop stop-color="#9A1915"/>
<stop offset="0.7473" stop-color="#D12019"/>
<stop offset="1" stop-color="#E5231B"/>
</linearGradient>
</defs>
</svg>
